<svg width="1433" height="2048" version="1.1" xmlns="http://www.w3.org/2000/svg" desc="Created with imagetracer.js version 1.2.6" ><path fill="rgb(0,0,0)" stroke="rgb(0,0,0)" stroke-width="1" opacity="0" d="M 0 0 L 713 0.5 L 676.5 2 L 675.5 3 L 660.5 4 L 659.5 5 L 636.5 8 L 600.5 17 L 558.5 32 Q 476.6 67.1 420 127.5 Q 375.4 173.9 346 235.5 Q 332.6 264.1 323 296.5 L 316 324.5 L 311 353.5 L 311 360.5 L 309 369.5 L 309 381.5 L 308 382.5 L 308 404.5 L 307 405.5 L 307 925.5 L 308 926.5 L 309 962.5 L 310 963.5 L 310 970.5 L 311 971.5 L 311 978.5 L 312 979.5 L 314 996.5 L 324 1038.5 L 336 1073.5 Q 370.6 1157.9 431.5 1216 Q 490.8 1274.7 576.5 1307 L 607.5 1317 L 653.5 1327 L 675.5 1329 L 676.5 1330 L 689.5 1330 L 690.5 1331 L 743.5 1331 L 744.5 1330 L 757.5 1330 L 758.5 1329 L 786.5 1326 L 826.5 1317 Q 862.3 1306.8 893.5 1292 Q 956.6 1261.1 1004 1214.5 Q 1046.2 1173.2 1076 1119.5 Q 1092.7 1089.2 1105 1054.5 L 1116 1015.5 L 1123 978.5 L 1123 971.5 L 1125 962.5 L 1125 950.5 L 1126 949.5 L 1126 926.5 L 1127 925.5 L 1127 405.5 L 1126 404.5 L 1125 369.5 L 1124 368.5 L 1123 353.5 L 1118 324.5 L 1107 283.5 L 1096 253.5 Q 1060.9 171.1 1000.5 114 Q 948 63 875.5 32 L 833.5 17 L 797.5 8 L 792.5 8 L 773.5 4 L 758.5 3 L 757.5 2 L 721 0.5 L 1433 0 L 1432.5 909 Q 1425.7 867.3 1399.5 845 Q 1382.8 829.2 1357.5 822 L 1342.5 819 L 1319.5 819 L 1300.5 823 L 1281.5 831 Q 1263.4 840.9 1251 856.5 Q 1236.1 874.1 1230 900.5 L 1230 905.5 L 1228 912.5 L 1228 942.5 L 1227 943.5 L 1226 972.5 L 1225 973.5 L 1223 996.5 L 1219 1014.5 L 1219 1019.5 L 1207 1068.5 L 1190 1116.5 Q 1145.5 1221 1068.5 1293 Q 998.7 1360.2 900.5 1399 L 862.5 1412 L 813.5 1424 L 808.5 1424 L 789.5 1428 L 766.5 1430 L 765.5 1431 L 734.5 1432 L 733.5 1433 L 702.5 1433 L 701.5 1432 L 682.5 1432 L 681.5 1431 L 660.5 1430 L 659.5 1429 L 644.5 1428 L 615.5 1423 L 571.5 1412 L 513.5 1391 Q 414.3 1346.7 345 1272.5 Q 282.3 1206.7 244 1116.5 L 227 1068.5 L 215 1019.5 L 215 1014.5 L 211 996.5 L 209 973.5 L 208 972.5 L 207 943.5 L 206 942.5 L 206 912.5 L 202 892.5 Q 191.6 860.9 168.5 842 L 150.5 830 L 133.5 823 L 113.5 819 L 92.5 819 L 76.5 822 L 52.5 832 Q 37.9 840.4 27 852.5 Q 12.7 868.2 5 890.5 L 1 909.5 L 1 956.5 L 2 957.5 L 3 985.5 L 5 994.5 L 7 1019.5 L 10 1032.5 L 12 1050.5 L 20 1088.5 L 34 1138.5 L 45 1170.5 L 70 1229.5 L 101 1287.5 L 135 1339.5 Q 173.7 1392.8 220.5 1438 Q 301.4 1516.1 408.5 1568 L 459.5 1590 L 505.5 1606 L 553.5 1619 L 614 1630 L 614 1842 L 392.5 1842 L 371.5 1846 L 353.5 1854 Q 337.8 1862.8 327 1876.5 Q 314.2 1892.2 309 1915.5 L 308 1930.5 L 307 1931.5 L 307 1958.5 L 308 1959.5 L 309 1974.5 L 315 1993.5 Q 324.3 2013.7 340.5 2027 Q 351.7 2036.3 366.5 2042 L 380.5 2046 L 397 2047.5 L 0 2048 L 0 0 Z " /><path fill="rgb(0,0,0)" stroke="rgb(0,0,0)" stroke-width="1" opacity="0" d="M 1432.5 957 L 1433 2048 L 1037 2047.5 L 1053.5 2046 L 1074.5 2039 Q 1093.4 2029.9 1106 2014.5 Q 1117.2 2001.2 1123 1982.5 L 1126 1969.5 L 1126 1958.5 L 1127 1957.5 L 1127 1931.5 L 1126 1930.5 L 1125 1915.5 L 1119 1896.5 Q 1109.7 1876.3 1093.5 1863 L 1070.5 1849 L 1054.5 1844 L 1042.5 1843 L 1041.5 1842 L 820 1842 L 820 1630.5 L 822.5 1630 L 880.5 1619 L 934.5 1604 L 1001.5 1579 L 1049.5 1556 Q 1147.9 1503.9 1223 1428.5 Q 1319.3 1333.8 1377 1200.5 L 1399 1141.5 L 1416 1079.5 L 1427 1019.5 L 1430 985.5 L 1431 984.5 L 1432.5 957 Z " /><path fill="rgb(28,24,26)" stroke="rgb(28,24,26)" stroke-width="1" opacity="0.6980392156862745" d="M 713.5 0 L 721 0.5 L 713.5 1 L 713.5 0 Z " /><path fill="rgb(28,24,26)" stroke="rgb(28,24,26)" stroke-width="1" opacity="0.6980392156862745" d="M 689.5 1 L 702 1.5 L 689.5 2 L 689.5 1 Z " /><path fill="rgb(28,24,26)" stroke="rgb(28,24,26)" stroke-width="1" opacity="0.6980392156862745" d="M 732.5 1 L 745 1.5 L 732.5 2 L 732.5 1 Z " /><path fill="rgb(28,24,26)" stroke="rgb(28,24,26)" stroke-width="1" opacity="0.6980392156862745" d="M 676.5 2 L 685 2.5 L 676.5 3 L 676.5 2 Z " /><path fill="rgb(28,24,26)" stroke="rgb(28,24,26)" stroke-width="1" opacity="0.6980392156862745" d="M 749.5 2 L 758 2.5 L 749.5 3 L 749.5 2 Z " /><path fill="rgb(28,24,26)" stroke="rgb(28,24,26)" stroke-width="1" opacity="0.6980392156862745" d="M 668.5 3 L 673 3.5 L 668.5 4 L 668.5 3 Z " /><path fill="rgb(28,24,26)" stroke="rgb(28,24,26)" stroke-width="1" opacity="0.6980392156862745" d="M 761.5 3 L 766 3.5 L 761.5 4 L 761.5 3 Z " /><path fill="rgb(28,24,26)" stroke="rgb(28,24,26)" stroke-width="1" opacity="0.6980392156862745" d="M 660.5 4 L 665 4.5 L 660.5 5 L 660.5 4 Z " /><path fill="rgb(28,24,26)" stroke="rgb(28,24,26)" stroke-width="1" opacity="0.6980392156862745" d="M 769.5 4 L 774 4.5 L 769.5 5 L 769.5 4 Z " /><path fill="rgb(28,24,26)" stroke="rgb(28,24,26)" stroke-width="1" opacity="0.6980392156862745" d="M 653.5 5 L 657 5.5 L 653.5 6 L 653.5 5 Z " /><path fill="rgb(28,24,26)" stroke="rgb(28,24,26)" stroke-width="1" opacity="0.6980392156862745" d="M 777.5 5 L 781 5.5 L 777.5 6 L 777.5 5 Z " /><path fill="rgb(28,24,26)" stroke="rgb(28,24,26)" stroke-width="1" opacity="0.6980392156862745" d="M 648.5 6 L 651 6.5 L 648.5 7 L 648.5 6 Z " /><path fill="rgb(28,24,26)" stroke="rgb(28,24,26)" stroke-width="1" opacity="0.6980392156862745" d="M 783.5 6 L 786 6.5 L 783.5 7 L 783.5 6 Z " /><path fill="rgb(28,24,26)" stroke="rgb(28,24,26)" stroke-width="1" opacity="0.6980392156862745" d="M 642.5 7 L 646 7.5 L 642.5 8 L 642.5 7 Z " /><path fill="rgb(28,24,26)" stroke="rgb(28,24,26)" stroke-width="1" opacity="0.6980392156862745" d="M 788.5 7 L 792 7.5 L 788.5 8 L 788.5 7 Z " /><path fill="rgb(28,24,26)" stroke="rgb(28,24,26)" stroke-width="1" opacity="0.6980392156862745" d="M 636.5 8 L 640 8.5 L 636.5 9 L 636.5 8 Z " /><path fill="rgb(28,24,26)" stroke="rgb(28,24,26)" stroke-width="1" opacity="0.6980392156862745" d="M 794.5 8 L 798 8.5 L 794.5 9 L 794.5 8 Z " /><path fill="rgb(28,24,26)" stroke="rgb(28,24,26)" stroke-width="1" opacity="0.6980392156862745" d="M 632.5 9 L 635 9.5 L 632.5 10 L 632.5 9 Z " /><path fill="rgb(28,24,26)" stroke="rgb(28,24,26)" stroke-width="1" opacity="0.6980392156862745" d="M 799.5 9 L 802 9.5 L 799.5 10 L 799.5 9 Z " /><path fill="rgb(28,24,26)" stroke="rgb(28,24,26)" stroke-width="1" opacity="0.6980392156862745" d="M 627.5 10 L 630 10.5 L 627.5 11 L 627.5 10 Z " /><path fill="rgb(28,24,26)" stroke="rgb(28,24,26)" stroke-width="1" opacity="0.6980392156862745" d="M 804.5 10 L 807 10.5 L 804.5 11 L 804.5 10 Z " /><path fill="rgb(28,24,26)" stroke="rgb(28,24,26)" stroke-width="1" opacity="0.6980392156862745" d="M 623.5 11 L 626 11.5 L 623.5 12 L 623.5 11 Z " /><path fill="rgb(28,24,26)" stroke="rgb(28,24,26)" stroke-width="1" opacity="0.6980392156862745" d="M 808.5 11 L 811 11.5 L 808.5 12 L 808.5 11 Z " /><path fill="rgb(28,24,26)" stroke="rgb(28,24,26)" stroke-width="1" opacity="0.6980392156862745" d="M 600.5 17 L 603 17.5 L 600.5 18 L 600.5 17 Z " /><path fill="rgb(28,24,26)" stroke="rgb(28,24,26)" stroke-width="1" opacity="0.6980392156862745" d="M 831.5 17 L 834 17.5 L 831.5 18 L 831.5 17 Z " /><path fill="rgb(28,24,26)" stroke="rgb(28,24,26)" stroke-width="1" opacity="0.6980392156862745" d="M 568.5 28 L 570 28.5 L 566.5 30 L 566.5 29 L 568.5 28 Z " /><path fill="rgb(28,24,26)" stroke="rgb(28,24,26)" stroke-width="1" opacity="0.6980392156862745" d="M 864.5 28 L 868 29.5 L 866.5 30 L 864.5 28 Z " /><path fill="rgb(28,24,26)" stroke="rgb(28,24,26)" stroke-width="1" opacity="0.6980392156862745" d="M 558.5 32 L 560 32.5 L 556.5 34 L 556.5 33 L 558.5 32 Z " /><path fill="rgb(28,24,26)" stroke="rgb(28,24,26)" stroke-width="1" opacity="0.6980392156862745" d="M 874.5 32 L 878 33.5 L 876.5 34 L 874.5 32 Z " /><path fill="rgb(28,24,26)" stroke="rgb(28,24,26)" stroke-width="1" opacity="0.6980392156862745" d="M 549.5 36 L 551 36.5 L 547.5 38 L 547.5 37 L 549.5 36 Z " /><path fill="rgb(28,24,26)" stroke="rgb(28,24,26)" stroke-width="1" opacity="0.6980392156862745" d="M 883.5 36 L 887 37.5 L 885.5 38 L 883.5 36 Z " /><path fill="rgb(28,24,26)" stroke="rgb(28,24,26)" stroke-width="1" opacity="0.6980392156862745" d="M 540.5 40 L 542 40.5 L 529.5 47 L 530.5 45 L 540.5 40 Z " /><path fill="rgb(28,24,26)" stroke="rgb(28,24,26)" stroke-width="1" opacity="0.6980392156862745" d="M 892.5 40 L 903 45.5 L 901.5 45 L 892.5 41 L 892.5 40 Z " /><path fill="rgb(28,24,26)" stroke="rgb(28,24,26)" stroke-width="1" opacity="0.6980392156862745" d="M 912.5 50 L 918 53.5 L 916.5 53 Q 912.5 52.5 912.5 50 Z " /><path fill="rgb(28,24,26)" stroke="rgb(28,24,26)" stroke-width="1" opacity="0.6980392156862745" d="M 519.5 51 L 518.5 53 L 514.5 55 L 515.5 53 L 519.5 51 Z " /><path fill="rgb(28,24,26)" stroke="rgb(28,24,26)" stroke-width="1" opacity="0.6980392156862745" d="M 919.5 54 L 925 57.5 L 923.5 57 Q 919.5 56.5 919.5 54 Z " /><path fill="rgb(28,24,26)" stroke="rgb(28,24,26)" stroke-width="1" opacity="0.6980392156862745" d="M 512.5 55 L 511.5 57 L 509.5 58 L 510.5 56 L 512.5 55 Z " /><path fill="rgb(28,24,26)" stroke="rgb(28,24,26)" stroke-width="1" opacity="0.6980392156862745" d="M 507.5 58 L 506.5 60 L 504.5 61 L 505.5 59 L 507.5 58 Z " /><path fill="rgb(28,24,26)" stroke="rgb(28,24,26)" stroke-width="1" opacity="0.6980392156862745" d="M 928.5 59 L 929.5 61 L 928.5 59 Z " /><path fill="rgb(28,24,26)" stroke="rgb(28,24,26)" stroke-width="1" opacity="0.6980392156862745" d="M 502.5 61 L 501.5 63 L 499.5 64 L 500.5 62 L 502.5 61 Z " /><path fill="rgb(28,24,26)" stroke="rgb(28,24,26)" stroke-width="1" opacity="0.6980392156862745" d="M 931.5 61 L 941 67.5 L 939.5 67 L 932.5 63 L 931.5 61 Z " /><path fill="rgb(28,24,26)" stroke="rgb(28,24,26)" stroke-width="1" opacity="0.6980392156862745" d="M 497.5 64 L 496.5 66 L 497.5 64 Z " /><path fill="rgb(28,24,26)" stroke="rgb(28,24,26)" stroke-width="1" opacity="0.6980392156862745" d="M 494.5 66 L 493.5 68 L 494.5 66 Z " /><path fill="rgb(28,24,26)" stroke="rgb(28,24,26)" stroke-width="1" opacity="0.6980392156862745" d="M 491.5 68 L 490.5 70 Q 454.9 92.9 426 122.5 Q 382.6 166.1 353 223.5 L 339 253.5 L 331 274.5 L 322 303.5 L 315.5 334 L 315 329.5 L 321 303.5 L 330 274.5 L 338 253.5 L 355 217.5 Q 386.9 158.4 433.5 114 Q 460 88.5 491.5 68 Z " /><path fill="rgb(28,24,26)" stroke="rgb(28,24,26)" stroke-width="1" opacity="0.6980392156862745" d="M 942.5 68 Q 983.4 94.6 1016 129.5 Q 1046.4 162.1 1070 201.5 L 1096 253.5 L 1107 285.5 L 1106 285.5 L 1100 266.5 L 1087 235.5 L 1067 198.5 Q 1040.2 154.3 1004.5 119 L 975.5 93 L 943.5 70 L 942.5 68 Z " /><path fill="rgb(28,24,26)" stroke="rgb(28,24,26)" stroke-width="1" opacity="0.6980392156862745" d="M 1107.5 287 Q 1115.8 307.7 1119 333.5 L 1118 333.5 L 1115 315.5 L 1107 289.5 L 1107.5 287 Z " /><path fill="rgb(28,24,26)" stroke="rgb(28,24,26)" stroke-width="1" opacity="0.6980392156862745" d="M 314.5 335 L 315 339.5 L 312.5 352 L 312 346.5 L 314.5 335 Z " /><path fill="rgb(28,24,26)" stroke="rgb(28,24,26)" stroke-width="1" opacity="0.6980392156862745" d="M 1119.5 335 L 1122 351.5 L 1121 351.5 L 1119.5 335 Z " /><path fill="rgb(28,24,26)" stroke="rgb(28,24,26)" stroke-width="1" opacity="0.6980392156862745" d="M 311.5 353 L 312 359.5 L 311 359.5 L 311.5 353 Z " /><path fill="rgb(28,24,26)" stroke="rgb(28,24,26)" stroke-width="1" opacity="0.6980392156862745" d="M 1122.5 353 L 1123 359.5 L 1122 359.5 L 1122.5 353 Z " /><path fill="rgb(28,24,26)" stroke="rgb(28,24,26)" stroke-width="1" opacity="0.6980392156862745" d="M 310.5 361 L 311 367.5 L 310 367.5 L 310.5 361 Z " /><path fill="rgb(28,24,26)" stroke="rgb(28,24,26)" stroke-width="1" opacity="0.6980392156862745" d="M 1123.5 361 L 1124 367.5 L 1123 367.5 L 1123.5 361 Z " /><path fill="rgb(28,24,26)" stroke="rgb(28,24,26)" stroke-width="1" opacity="0.6980392156862745" d="M 309.5 369 L 310 380.5 L 309 380.5 L 309.5 369 Z " /><path fill="rgb(28,24,26)" stroke="rgb(28,24,26)" stroke-width="1" opacity="0.6980392156862745" d="M 1124.5 369 L 1125 380.5 L 1124 380.5 L 1124.5 369 Z " /><path fill="rgb(28,24,26)" stroke="rgb(28,24,26)" stroke-width="1" opacity="0.6980392156862745" d="M 308.5 382 L 309 403.5 L 308 403.5 L 308.5 382 Z " /><path fill="rgb(28,24,26)" stroke="rgb(28,24,26)" stroke-width="1" opacity="0.6980392156862745" d="M 1125.5 382 L 1126 404.5 L 1127 405.5 L 1127 925.5 L 1126 925.5 L 1126 405.5 L 1125 404.5 L 1125.5 382 Z " /><path fill="rgb(28,24,26)" stroke="rgb(28,24,26)" stroke-width="1" opacity="0.6980392156862745" d="M 307.5 405 L 308 925.5 L 307 925.5 L 307.5 405 Z " /><path fill="rgb(28,24,26)" stroke="rgb(28,24,26)" stroke-width="1" opacity="0.6980392156862745" d="M 92.5 819 L 113.5 819 L 129.5 822 L 141.5 826 Q 167 836.5 183 856.5 Q 192.3 867.7 198 882.5 L 197 882.5 Q 188.4 861.1 172.5 847 Q 158.4 833.6 138.5 826 L 112.5 820 L 93.5 820 L 73.5 824 L 60.5 829 Q 42.9 837.4 30 850.5 L 16.5 868 L 17 866.5 Q 23.9 853.9 34.5 845 Q 47.3 833.3 64.5 826 L 76.5 822 L 92.5 819 Z " /><path fill="rgb(28,24,26)" stroke="rgb(28,24,26)" stroke-width="1" opacity="0.6980392156862745" d="M 1319.5 819 L 1342.5 819 L 1369.5 826 Q 1391.9 835.6 1407 852.5 L 1418 867.5 L 1416 866.5 Q 1410.2 855.8 1401.5 848 Q 1385.9 833.1 1363.5 825 L 1340.5 820 L 1321.5 820 L 1301.5 824 L 1280.5 833 Q 1265.8 841.3 1255 853.5 Q 1243.5 866 1236.5 883 L 1236 881.5 Q 1246.8 856.8 1266.5 841 Q 1278.6 831.1 1294.5 825 L 1319.5 819 Z " /><path fill="rgb(28,24,26)" stroke="rgb(28,24,26)" stroke-width="1" opacity="0.6980392156862745" d="M 15.5 869 L 15 870.5 L 13.5 873 L 14 871.5 L 15.5 869 Z " /><path fill="rgb(28,24,26)" stroke="rgb(28,24,26)" stroke-width="1" opacity="0.6980392156862745" d="M 1418.5 869 L 1421 872.5 L 1419 871.5 L 1418.5 869 Z " /><path fill="rgb(28,24,26)" stroke="rgb(28,24,26)" stroke-width="1" opacity="0.6980392156862745" d="M 10.5 878 L 11 879.5 L 8.5 884 L 8 882.5 L 10.5 878 Z " /><path fill="rgb(28,24,26)" stroke="rgb(28,24,26)" stroke-width="1" opacity="0.6980392156862745" d="M 1424.5 880 L 1426 883.5 L 1425 883.5 L 1424.5 880 Z " /><path fill="rgb(28,24,26)" stroke="rgb(28,24,26)" stroke-width="1" opacity="0.6980392156862745" d="M 1235.5 884 L 1236 885.5 L 1232.5 895 L 1232 892.5 L 1235.5 884 Z " /><path fill="rgb(28,24,26)" stroke="rgb(28,24,26)" stroke-width="1" opacity="0.6980392156862745" d="M 199.5 887 L 202 894.5 L 201 894.5 L 199.5 887 Z " /><path fill="rgb(28,24,26)" stroke="rgb(28,24,26)" stroke-width="1" opacity="0.6980392156862745" d="M 6.5 888 L 7 889.5 L 5.5 893 L 5 890.5 L 6.5 888 Z " /><path fill="rgb(28,24,26)" stroke="rgb(28,24,26)" stroke-width="1" opacity="0.6980392156862745" d="M 202.5 896 L 203 898.5 L 202 898.5 L 202.5 896 Z " /><path fill="rgb(28,24,26)" stroke="rgb(28,24,26)" stroke-width="1" opacity="0.6980392156862745" d="M 1231.5 896 L 1232 898.5 L 1231 898.5 L 1231.5 896 Z " /><path fill="rgb(28,24,26)" stroke="rgb(28,24,26)" stroke-width="1" opacity="0.6980392156862745" d="M 203.5 900 L 204 903.5 L 203 903.5 L 203.5 900 Z " /><path fill="rgb(28,24,26)" stroke="rgb(28,24,26)" stroke-width="1" opacity="0.6980392156862745" d="M 1230.5 900 L 1231 903.5 L 1230 903.5 L 1230.5 900 Z " /><path fill="rgb(28,24,26)" stroke="rgb(28,24,26)" stroke-width="1" opacity="0.6980392156862745" d="M 2.5 902 L 3 905.5 L 2 905.5 L 2.5 902 Z " /><path fill="rgb(28,24,26)" stroke="rgb(28,24,26)" stroke-width="1" opacity="0.6980392156862745" d="M 1431.5 902 L 1432 905.5 L 1431 905.5 L 1431.5 902 Z " /><path fill="rgb(28,24,26)" stroke="rgb(28,24,26)" stroke-width="1" opacity="0.6980392156862745" d="M 204.5 906 L 205 910.5 L 204 910.5 L 204.5 906 Z " /><path fill="rgb(28,24,26)" stroke="rgb(28,24,26)" stroke-width="1" opacity="0.6980392156862745" d="M 1229.5 906 L 1230 910.5 L 1229 910.5 L 1229.5 906 Z " /><path fill="rgb(28,24,26)" stroke="rgb(28,24,26)" stroke-width="1" opacity="0.6980392156862745" d="M 1.5 909 L 2 915.5 L 1 915.5 L 1.5 909 Z " /><path fill="rgb(28,24,26)" stroke="rgb(28,24,26)" stroke-width="1" opacity="0.6980392156862745" d="M 1432.5 909 L 1433 915.5 L 1432 915.5 L 1432.5 909 Z " /><path fill="rgb(28,24,26)" stroke="rgb(28,24,26)" stroke-width="1" opacity="0.6980392156862745" d="M 205.5 912 L 206 932.5 L 205 932.5 L 205.5 912 Z " /><path fill="rgb(28,24,26)" stroke="rgb(28,24,26)" stroke-width="1" opacity="0.6980392156862745" d="M 1228.5 912 L 1229 932.5 L 1228 932.5 L 1228.5 912 Z " /><path fill="rgb(28,24,26)" stroke="rgb(28,24,26)" stroke-width="1" opacity="0.6980392156862745" d="M 308.5 927 L 309 949.5 L 308 949.5 L 308.5 927 Z " /><path fill="rgb(28,24,26)" stroke="rgb(28,24,26)" stroke-width="1" opacity="0.6980392156862745" d="M 1125.5 927 L 1126 949.5 L 1125 949.5 L 1125.5 927 Z " /><path fill="rgb(28,24,26)" stroke="rgb(28,24,26)" stroke-width="1" opacity="0.6980392156862745" d="M 1.5 933 L 2 956.5 L 1 956.5 L 1.5 933 Z " /><path fill="rgb(28,24,26)" stroke="rgb(28,24,26)" stroke-width="1" opacity="0.6980392156862745" d="M 1432.5 933 L 1433 956.5 L 1432 956.5 L 1432.5 933 Z " /><path fill="rgb(28,24,26)" stroke="rgb(28,24,26)" stroke-width="1" opacity="0.6980392156862745" d="M 206.5 943 L 207 955.5 L 206 955.5 L 206.5 943 Z " /><path fill="rgb(28,24,26)" stroke="rgb(28,24,26)" stroke-width="1" opacity="0.6980392156862745" d="M 1227.5 943 L 1228 955.5 L 1227 955.5 L 1227.5 943 Z " /><path fill="rgb(28,24,26)" stroke="rgb(28,24,26)" stroke-width="1" opacity="0.6980392156862745" d="M 309.5 951 L 310 962.5 L 309 962.5 L 309.5 951 Z " /><path fill="rgb(28,24,26)" stroke="rgb(28,24,26)" stroke-width="1" opacity="0.6980392156862745" d="M 1124.5 951 L 1125 962.5 L 1124 962.5 L 1124.5 951 Z " /><path fill="rgb(28,24,26)" stroke="rgb(28,24,26)" stroke-width="1" opacity="0.6980392156862745" d="M 207.5 960 L 208 969.5 L 207 969.5 L 207.5 960 Z " /><path fill="rgb(28,24,26)" stroke="rgb(28,24,26)" stroke-width="1" opacity="0.6980392156862745" d="M 1226.5 960 L 1227 969.5 L 1226 969.5 L 1226.5 960 Z " /><path fill="rgb(28,24,26)" stroke="rgb(28,24,26)" stroke-width="1" opacity="0.6980392156862745" d="M 2.5 961 L 3 970.5 L 2 970.5 L 2.5 961 Z " /><path fill="rgb(28,24,26)" stroke="rgb(28,24,26)" stroke-width="1" opacity="0.6980392156862745" d="M 1431.5 961 L 1432 970.5 L 1431 970.5 L 1431.5 961 Z " /><path fill="rgb(28,24,26)" stroke="rgb(28,24,26)" stroke-width="1" opacity="0.6980392156862745" d="M 310.5 964 L 311 970.5 L 310 970.5 L 310.5 964 Z " /><path fill="rgb(28,24,26)" stroke="rgb(28,24,26)" stroke-width="1" opacity="0.6980392156862745" d="M 1123.5 964 L 1124 970.5 L 1123 970.5 L 1123.5 964 Z " /><path fill="rgb(28,24,26)" stroke="rgb(28,24,26)" stroke-width="1" opacity="0.6980392156862745" d="M 311.5 972 L 312 978.5 L 311 978.5 L 311.5 972 Z " /><path fill="rgb(28,24,26)" stroke="rgb(28,24,26)" stroke-width="1" opacity="0.6980392156862745" d="M 1122.5 972 L 1123 978.5 L 1122 978.5 L 1122.5 972 Z " /><path fill="rgb(28,24,26)" stroke="rgb(28,24,26)" stroke-width="1" opacity="0.6980392156862745" d="M 208.5 973 L 209 978.5 L 208 978.5 L 208.5 973 Z " /><path fill="rgb(28,24,26)" stroke="rgb(28,24,26)" stroke-width="1" opacity="0.6980392156862745" d="M 1225.5 973 L 1226 978.5 L 1225 978.5 L 1225.5 973 Z " /><path fill="rgb(28,24,26)" stroke="rgb(28,24,26)" stroke-width="1" opacity="0.6980392156862745" d="M 3.5 976 L 4 985.5 L 3 985.5 L 3.5 976 Z " /><path fill="rgb(28,24,26)" stroke="rgb(28,24,26)" stroke-width="1" opacity="0.6980392156862745" d="M 1430.5 976 L 1431 984.5 L 1430 984.5 L 1430.5 976 Z " /><path fill="rgb(28,24,26)" stroke="rgb(28,24,26)" stroke-width="1" opacity="0.6980392156862745" d="M 312.5 980 L 313 984.5 L 312 984.5 L 312.5 980 Z " /><path fill="rgb(28,24,26)" stroke="rgb(28,24,26)" stroke-width="1" opacity="0.6980392156862745" d="M 1121.5 980 L 1122 984.5 L 1121 984.5 L 1121.5 980 Z " /><path fill="rgb(28,24,26)" stroke="rgb(28,24,26)" stroke-width="1" opacity="0.6980392156862745" d="M 209.5 981 L 210 986.5 L 209 986.5 L 209.5 981 Z " /><path fill="rgb(28,24,26)" stroke="rgb(28,24,26)" stroke-width="1" opacity="0.6980392156862745" d="M 1224.5 981 L 1225 986.5 L 1224 986.5 L 1224.5 981 Z " /><path fill="rgb(28,24,26)" stroke="rgb(28,24,26)" stroke-width="1" opacity="0.6980392156862745" d="M 313.5 986 L 314 990.5 L 313 990.5 L 313.5 986 Z " /><path fill="rgb(28,24,26)" stroke="rgb(28,24,26)" stroke-width="1" opacity="0.6980392156862745" d="M 1120.5 986 L 1121 990.5 L 1120 990.5 L 1120.5 986 Z " /><path fill="rgb(28,24,26)" stroke="rgb(28,24,26)" stroke-width="1" opacity="0.6980392156862745" d="M 4.5 989 L 5 993.5 L 4 993.5 L 4.5 989 Z " /><path fill="rgb(28,24,26)" stroke="rgb(28,24,26)" stroke-width="1" opacity="0.6980392156862745" d="M 210.5 989 L 211 994.5 L 210 994.5 L 210.5 989 Z " /><path fill="rgb(28,24,26)" stroke="rgb(28,24,26)" stroke-width="1" opacity="0.6980392156862745" d="M 1223.5 989 L 1224 994.5 L 1223 994.5 L 1223.5 989 Z " /><path fill="rgb(28,24,26)" stroke="rgb(28,24,26)" stroke-width="1" opacity="0.6980392156862745" d="M 1429.5 989 L 1430 993.5 L 1429 993.5 L 1429.5 989 Z " /><path fill="rgb(28,24,26)" stroke="rgb(28,24,26)" stroke-width="1" opacity="0.6980392156862745" d="M 314.5 992 L 315 996.5 L 314 996.5 L 314.5 992 Z " /><path fill="rgb(28,24,26)" stroke="rgb(28,24,26)" stroke-width="1" opacity="0.6980392156862745" d="M 1119.5 992 L 1120 996.5 L 1119 996.5 L 1119.5 992 Z " /><path fill="rgb(28,24,26)" stroke="rgb(28,24,26)" stroke-width="1" opacity="0.6980392156862745" d="M 211.5 997 L 212 1001.5 L 211 1001.5 L 211.5 997 Z " /><path fill="rgb(28,24,26)" stroke="rgb(28,24,26)" stroke-width="1" opacity="0.6980392156862745" d="M 1222.5 997 L 1223 1001.5 L 1222 1001.5 L 1222.5 997 Z " /><path fill="rgb(28,24,26)" stroke="rgb(28,24,26)" stroke-width="1" opacity="0.6980392156862745" d="M 5.5 998 L 6 1002.5 L 5 1002.5 L 5.5 998 Z " /><path fill="rgb(28,24,26)" stroke="rgb(28,24,26)" stroke-width="1" opacity="0.6980392156862745" d="M 315.5 998 L 316 1001.5 L 315 1001.5 L 315.5 998 Z " /><path fill="rgb(28,24,26)" stroke="rgb(28,24,26)" stroke-width="1" opacity="0.6980392156862745" d="M 1118.5 998 L 1119 1001.5 L 1118 1001.5 L 1118.5 998 Z " /><path fill="rgb(28,24,26)" stroke="rgb(28,24,26)" stroke-width="1" opacity="0.6980392156862745" d="M 1428.5 998 L 1429 1002.5 L 1428 1002.5 L 1428.5 998 Z " /><path fill="rgb(28,24,26)" stroke="rgb(28,24,26)" stroke-width="1" opacity="0.6980392156862745" d="M 212.5 1003 L 213 1006.5 L 212 1006.5 L 212.5 1003 Z " /><path fill="rgb(28,24,26)" stroke="rgb(28,24,26)" stroke-width="1" opacity="0.6980392156862745" d="M 316.5 1003 L 318 1010.5 L 317 1010.5 L 316.5 1003 Z " /><path fill="rgb(28,24,26)" stroke="rgb(28,24,26)" stroke-width="1" opacity="0.6980392156862745" d="M 1117.5 1003 L 1118 1006.5 L 1116.5 1011 L 1116 1007.5 L 1117.5 1003 Z " /><path fill="rgb(28,24,26)" stroke="rgb(28,24,26)" stroke-width="1" opacity="0.6980392156862745" d="M 1221.5 1003 L 1222 1006.5 L 1221 1006.5 L 1221.5 1003 Z " /><path fill="rgb(28,24,26)" stroke="rgb(28,24,26)" stroke-width="1" opacity="0.6980392156862745" d="M 6.5 1006 L 7 1011.5 L 6 1011.5 L 6.5 1006 Z " /><path fill="rgb(28,24,26)" stroke="rgb(28,24,26)" stroke-width="1" opacity="0.6980392156862745" d="M 1427.5 1006 L 1428 1011.5 L 1427 1011.5 L 1427.5 1006 Z " /><path fill="rgb(28,24,26)" stroke="rgb(28,24,26)" stroke-width="1" opacity="0.6980392156862745" d="M 213.5 1009 L 214 1012.5 L 213 1012.5 L 213.5 1009 Z " /><path fill="rgb(28,24,26)" stroke="rgb(28,24,26)" stroke-width="1" opacity="0.6980392156862745" d="M 1220.5 1009 L 1221 1012.5 L 1220 1012.5 L 1220.5 1009 Z " /><path fill="rgb(28,24,26)" stroke="rgb(28,24,26)" stroke-width="1" opacity="0.6980392156862745" d="M 318.5 1012 L 320 1019.5 L 319 1019.5 L 318.5 1012 Z " /><path fill="rgb(28,24,26)" stroke="rgb(28,24,26)" stroke-width="1" opacity="0.6980392156862745" d="M 1115.5 1012 L 1116 1015.5 L 1114.5 1020 L 1114 1016.5 L 1115.5 1012 Z " /><path fill="rgb(28,24,26)" stroke="rgb(28,24,26)" stroke-width="1" opacity="0.6980392156862745" d="M 214.5 1014 L 215 1018.5 L 214 1018.5 L 214.5 1014 Z " /><path fill="rgb(28,24,26)" stroke="rgb(28,24,26)" stroke-width="1" opacity="0.6980392156862745" d="M 1219.5 1014 L 1220 1018.5 L 1219 1018.5 L 1219.5 1014 Z " /><path fill="rgb(28,24,26)" stroke="rgb(28,24,26)" stroke-width="1" opacity="0.6980392156862745" d="M 7.5 1015 L 8 1019.5 L 7 1019.5 L 7.5 1015 Z " /><path fill="rgb(28,24,26)" stroke="rgb(28,24,26)" stroke-width="1" opacity="0.6980392156862745" d="M 1426.5 1015 L 1427 1019.5 L 1426 1019.5 L 1426.5 1015 Z " /><path fill="rgb(28,24,26)" stroke="rgb(28,24,26)" stroke-width="1" opacity="0.6980392156862745" d="M 215.5 1020 L 216 1023.5 L 215 1023.5 L 215.5 1020 Z " /><path fill="rgb(28,24,26)" stroke="rgb(28,24,26)" stroke-width="1" opacity="0.6980392156862745" d="M 1218.5 1020 L 1219 1023.5 L 1218 1023.5 L 1218.5 1020 Z " /><path fill="rgb(28,24,26)" stroke="rgb(28,24,26)" stroke-width="1" opacity="0.6980392156862745" d="M 320.5 1021 L 323 1030.5 L 322 1030.5 L 320.5 1021 Z " /><path fill="rgb(28,24,26)" stroke="rgb(28,24,26)" stroke-width="1" opacity="0.6980392156862745" d="M 1113.5 1021 L 1114 1023.5 L 1111.5 1031 L 1111 1028.5 L 1113.5 1021 Z " /><path fill="rgb(28,24,26)" stroke="rgb(28,24,26)" stroke-width="1" opacity="0.6980392156862745" d="M 8.5 1022 L 9 1025.5 L 8 1025.5 L 8.5 1022 Z " /><path fill="rgb(28,24,26)" stroke="rgb(28,24,26)" stroke-width="1" opacity="0.6980392156862745" d="M 1425.5 1022 L 1426 1025.5 L 1425 1025.5 L 1425.5 1022 Z " /><path fill="rgb(28,24,26)" stroke="rgb(28,24,26)" stroke-width="1" opacity="0.6980392156862745" d="M 216.5 1025 L 218 1032.5 L 217 1032.5 L 216.5 1025 Z " /><path fill="rgb(28,24,26)" stroke="rgb(28,24,26)" stroke-width="1" opacity="0.6980392156862745" d="M 1217.5 1025 L 1218 1028.5 L 1216.5 1033 L 1216 1029.5 L 1217.5 1025 Z " /><path fill="rgb(28,24,26)" stroke="rgb(28,24,26)" stroke-width="1" opacity="0.6980392156862745" d="M 9.5 1028 L 10 1031.5 L 9 1031.5 L 9.5 1028 Z " /><path fill="rgb(28,24,26)" stroke="rgb(28,24,26)" stroke-width="1" opacity="0.6980392156862745" d="M 1424.5 1028 L 1425 1031.5 L 1424 1031.5 L 1424.5 1028 Z " /><path fill="rgb(28,24,26)" stroke="rgb(28,24,26)" stroke-width="1" opacity="0.6980392156862745" d="M 323.5 1032 L 330 1054.5 L 340 1080.5 Q 352.7 1110.3 369 1136.5 Q 399.7 1185.8 441.5 1224 Q 498.9 1277.1 579.5 1307 L 615.5 1318 L 654.5 1326 L 678.5 1328 L 679.5 1329 L 692.5 1329 L 693.5 1330 L 740.5 1330 L 741.5 1329 L 754.5 1329 L 755.5 1328 L 779.5 1326 L 818.5 1318 L 854.5 1307 L 888.5 1293 Q 965.3 1256.8 1019 1197.5 Q 1051 1162.5 1075 1119.5 Q 1097.3 1080.3 1110.5 1032 L 1111 1034.5 L 1098 1073.5 L 1071 1128.5 Q 1042.1 1177.6 1002.5 1216 Q 943 1274.5 857.5 1307 L 826.5 1317 L 780.5 1327 L 758.5 1329 L 757.5 1330 L 744.5 1330 L 743.5 1331 L 690.5 1331 L 689.5 1330 L 676.5 1330 L 675.5 1329 L 653.5 1327 L 607.5 1317 Q 571.7 1306.8 540.5 1292 Q 476 1260.5 428 1212.5 Q 390.7 1175.3 363 1128.5 L 336 1073.5 L 324 1038.5 L 323.5 1032 Z " /><path fill="rgb(28,24,26)" stroke="rgb(28,24,26)" stroke-width="1" opacity="0.6980392156862745" d="M 218.5 1034 L 220 1041.5 L 219 1041.5 L 218.5 1034 Z " /><path fill="rgb(28,24,26)" stroke="rgb(28,24,26)" stroke-width="1" opacity="0.6980392156862745" d="M 1215.5 1034 L 1216 1037.5 L 1214.5 1042 L 1214 1038.5 L 1215.5 1034 Z " /><path fill="rgb(28,24,26)" stroke="rgb(28,24,26)" stroke-width="1" opacity="0.6980392156862745" d="M 10.5 1035 L 11 1038.5 L 10 1038.5 L 10.5 1035 Z " /><path fill="rgb(28,24,26)" stroke="rgb(28,24,26)" stroke-width="1" opacity="0.6980392156862745" d="M 1423.5 1035 L 1424 1038.5 L 1423 1038.5 L 1423.5 1035 Z " /><path fill="rgb(28,24,26)" stroke="rgb(28,24,26)" stroke-width="1" opacity="0.6980392156862745" d="M 11.5 1041 L 12 1044.5 L 11 1044.5 L 11.5 1041 Z " /><path fill="rgb(28,24,26)" stroke="rgb(28,24,26)" stroke-width="1" opacity="0.6980392156862745" d="M 1422.5 1041 L 1423 1044.5 L 1422 1044.5 L 1422.5 1041 Z " /><path fill="rgb(28,24,26)" stroke="rgb(28,24,26)" stroke-width="1" opacity="0.6980392156862745" d="M 220.5 1043 L 221 1045.5 L 220 1045.5 L 220.5 1043 Z " /><path fill="rgb(28,24,26)" stroke="rgb(28,24,26)" stroke-width="1" opacity="0.6980392156862745" d="M 1213.5 1043 L 1214 1045.5 L 1213 1045.5 L 1213.5 1043 Z " /><path fill="rgb(28,24,26)" stroke="rgb(28,24,26)" stroke-width="1" opacity="0.6980392156862745" d="M 12.5 1047 L 13 1050.5 L 12 1050.5 L 12.5 1047 Z " /><path fill="rgb(28,24,26)" stroke="rgb(28,24,26)" stroke-width="1" opacity="0.6980392156862745" d="M 221.5 1047 L 222 1049.5 L 221 1049.5 L 221.5 1047 Z " /><path fill="rgb(28,24,26)" stroke="rgb(28,24,26)" stroke-width="1" opacity="0.6980392156862745" d="M 1212.5 1047 L 1213 1049.5 L 1212 1049.5 L 1212.5 1047 Z " /><path fill="rgb(28,24,26)" stroke="rgb(28,24,26)" stroke-width="1" opacity="0.6980392156862745" d="M 1421.5 1047 L 1422 1050.5 L 1421 1050.5 L 1421.5 1047 Z " /><path fill="rgb(28,24,26)" stroke="rgb(28,24,26)" stroke-width="1" opacity="0.6980392156862745" d="M 222.5 1051 L 224 1056.5 L 223 1056.5 L 222.5 1051 Z " /><path fill="rgb(28,24,26)" stroke="rgb(28,24,26)" stroke-width="1" opacity="0.6980392156862745" d="M 1211.5 1051 L 1212 1053.5 L 1210.5 1057 L 1210 1054.5 L 1211.5 1051 Z " /><path fill="rgb(28,24,26)" stroke="rgb(28,24,26)" stroke-width="1" opacity="0.6980392156862745" d="M 13.5 1053 L 14 1055.5 L 13 1055.5 L 13.5 1053 Z " /><path fill="rgb(28,24,26)" stroke="rgb(28,24,26)" stroke-width="1" opacity="0.6980392156862745" d="M 1420.5 1053 L 1421 1055.5 L 1420 1055.5 L 1420.5 1053 Z " /><path fill="rgb(28,24,26)" stroke="rgb(28,24,26)" stroke-width="1" opacity="0.6980392156862745" d="M 14.5 1058 L 15 1060.5 L 14 1060.5 L 14.5 1058 Z " /><path fill="rgb(28,24,26)" stroke="rgb(28,24,26)" stroke-width="1" opacity="0.6980392156862745" d="M 224.5 1058 L 225 1060.5 L 224 1060.5 L 224.5 1058 Z " /><path fill="rgb(28,24,26)" stroke="rgb(28,24,26)" stroke-width="1" opacity="0.6980392156862745" d="M 1209.5 1058 L 1210 1060.5 L 1209 1060.5 L 1209.5 1058 Z " /><path fill="rgb(28,24,26)" stroke="rgb(28,24,26)" stroke-width="1" opacity="0.6980392156862745" d="M 1419.5 1058 L 1420 1060.5 L 1419 1060.5 L 1419.5 1058 Z " /><path fill="rgb(28,24,26)" stroke="rgb(28,24,26)" stroke-width="1" opacity="0.6980392156862745" d="M 225.5 1062 L 227 1067.5 L 226 1067.5 L 225.5 1062 Z " /><path fill="rgb(28,24,26)" stroke="rgb(28,24,26)" stroke-width="1" opacity="0.6980392156862745" d="M 1208.5 1062 L 1209 1064.5 L 1207.5 1068 L 1207 1065.5 L 1208.5 1062 Z " /><path fill="rgb(28,24,26)" stroke="rgb(28,24,26)" stroke-width="1" opacity="0.6980392156862745" d="M 15.5 1063 L 16 1065.5 L 15 1065.5 L 15.5 1063 Z " /><path fill="rgb(28,24,26)" stroke="rgb(28,24,26)" stroke-width="1" opacity="0.6980392156862745" d="M 1418.5 1063 L 1419 1065.5 L 1418 1065.5 L 1418.5 1063 Z " /><path fill="rgb(28,24,26)" stroke="rgb(28,24,26)" stroke-width="1" opacity="0.6980392156862745" d="M 16.5 1068 L 17 1070.5 L 16 1070.5 L 16.5 1068 Z " /><path fill="rgb(28,24,26)" stroke="rgb(28,24,26)" stroke-width="1" opacity="0.6980392156862745" d="M 1417.5 1068 L 1418 1070.5 L 1417 1070.5 L 1417.5 1068 Z " /><path fill="rgb(28,24,26)" stroke="rgb(28,24,26)" stroke-width="1" opacity="0.6980392156862745" d="M 17.5 1072 L 18 1074.5 L 17 1074.5 L 17.5 1072 Z " /><path fill="rgb(28,24,26)" stroke="rgb(28,24,26)" stroke-width="1" opacity="0.6980392156862745" d="M 228.5 1072 L 239 1102.5 L 238 1102.5 L 228 1074.5 L 228.5 1072 Z " /><path fill="rgb(28,24,26)" stroke="rgb(28,24,26)" stroke-width="1" opacity="0.6980392156862745" d="M 1205.5 1072 L 1206 1074.5 L 1195.5 1103 L 1195 1101.5 L 1205.5 1072 Z " /><path fill="rgb(28,24,26)" stroke="rgb(28,24,26)" stroke-width="1" opacity="0.6980392156862745" d="M 1416.5 1072 L 1417 1074.5 L 1416 1074.5 L 1416.5 1072 Z " /><path fill="rgb(28,24,26)" stroke="rgb(28,24,26)" stroke-width="1" opacity="0.6980392156862745" d="M 18.5 1077 L 19 1079.5 L 18 1079.5 L 18.5 1077 Z " /><path fill="rgb(28,24,26)" stroke="rgb(28,24,26)" stroke-width="1" opacity="0.6980392156862745" d="M 1415.5 1077 L 1416 1079.5 L 1415 1079.5 L 1415.5 1077 Z " /><path fill="rgb(28,24,26)" stroke="rgb(28,24,26)" stroke-width="1" opacity="0.6980392156862745" d="M 19.5 1081 L 20 1083.5 L 19 1083.5 L 19.5 1081 Z " /><path fill="rgb(28,24,26)" stroke="rgb(28,24,26)" stroke-width="1" opacity="0.6980392156862745" d="M 1414.5 1081 L 1415 1083.5 L 1414 1083.5 L 1414.5 1081 Z " /><path fill="rgb(28,24,26)" stroke="rgb(28,24,26)" stroke-width="1" opacity="0.6980392156862745" d="M 20.5 1086 L 21 1088.5 L 20 1088.5 L 20.5 1086 Z " /><path fill="rgb(28,24,26)" stroke="rgb(28,24,26)" stroke-width="1" opacity="0.6980392156862745" d="M 239.5 1104 L 244 1115.5 L 243 1115.5 L 239.5 1104 Z " /><path fill="rgb(28,24,26)" stroke="rgb(28,24,26)" stroke-width="1" opacity="0.6980392156862745" d="M 1194.5 1104 L 1195 1105.5 L 1190.5 1116 L 1190 1114.5 L 1194.5 1104 Z " /><path fill="rgb(28,24,26)" stroke="rgb(28,24,26)" stroke-width="1" opacity="0.6980392156862745" d="M 25.5 1105 L 26 1107.5 L 25 1107.5 L 25.5 1105 Z " /><path fill="rgb(28,24,26)" stroke="rgb(28,24,26)" stroke-width="1" opacity="0.6980392156862745" d="M 1408.5 1105 L 1409 1107.5 L 1408 1107.5 L 1408.5 1105 Z " /><path fill="rgb(28,24,26)" stroke="rgb(28,24,26)" stroke-width="1" opacity="0.6980392156862745" d="M 26.5 1109 L 27 1111.5 L 26 1111.5 L 26.5 1109 Z " /><path fill="rgb(28,24,26)" stroke="rgb(28,24,26)" stroke-width="1" opacity="0.6980392156862745" d="M 1407.5 1109 L 1408 1111.5 L 1407 1111.5 L 1407.5 1109 Z " /><path fill="rgb(28,24,26)" stroke="rgb(28,24,26)" stroke-width="1" opacity="0.6980392156862745" d="M 244.5 1117 Q 288.7 1221.3 365.5 1293 Q 437 1362 538.5 1401 L 589.5 1417 L 644.5 1428 L 668.5 1430 L 669.5 1431 L 681.5 1431 L 682.5 1432 L 733.5 1433 L 734.5 1432 L 765.5 1431 L 766.5 1430 L 789.5 1428 L 836.5 1419 Q 888.9 1405.9 933.5 1385 Q 1023.6 1342.1 1088 1273.5 Q 1151.3 1207.8 1189.5 1117 L 1190 1118.5 Q 1169.9 1165.9 1143 1206.5 Q 1107.3 1259.8 1060.5 1302 Q 989.5 1367 890.5 1404 L 841.5 1419 L 791.5 1429 L 775.5 1430 L 766.5 1432 L 754.5 1432 L 753.5 1433 L 701.5 1434 L 700.5 1433 L 681.5 1433 L 680.5 1432 L 667.5 1432 L 658.5 1430 L 642.5 1429 L 596.5 1420 L 543.5 1404 L 508.5 1390 Q 407.1 1343.4 337 1265.5 Q 304.8 1229.7 279 1187.5 L 257 1147.5 L 246 1123.5 L 244.5 1117 Z " /><path fill="rgb(28,24,26)" stroke="rgb(28,24,26)" stroke-width="1" opacity="0.6980392156862745" d="M 29.5 1119 L 30 1121.5 L 29 1121.5 L 29.5 1119 Z " /><path fill="rgb(28,24,26)" stroke="rgb(28,24,26)" stroke-width="1" opacity="0.6980392156862745" d="M 1404.5 1119 L 1405 1121.5 L 1404 1121.5 L 1404.5 1119 Z " /><path fill="rgb(28,24,26)" stroke="rgb(28,24,26)" stroke-width="1" opacity="0.6980392156862745" d="M 32.5 1129 L 33 1131.5 L 32 1131.5 L 32.5 1129 Z " /><path fill="rgb(28,24,26)" stroke="rgb(28,24,26)" stroke-width="1" opacity="0.6980392156862745" d="M 1401.5 1129 L 1402 1131.5 L 1401 1131.5 L 1401.5 1129 Z " /><path fill="rgb(28,24,26)" stroke="rgb(28,24,26)" stroke-width="1" opacity="0.6980392156862745" d="M 34.5 1136 L 35 1138.5 L 34 1138.5 L 34.5 1136 Z " /><path fill="rgb(28,24,26)" stroke="rgb(28,24,26)" stroke-width="1" opacity="0.6980392156862745" d="M 1398.5 1139 L 1399 1141.5 L 1398 1141.5 L 1398.5 1139 Z " /><path fill="rgb(28,24,26)" stroke="rgb(28,24,26)" stroke-width="1" opacity="0.6980392156862745" d="M 36.5 1143 L 39 1149.5 L 38 1149.5 L 36.5 1143 Z " /><path fill="rgb(28,24,26)" stroke="rgb(28,24,26)" stroke-width="1" opacity="0.6980392156862745" d="M 1397.5 1143 L 1398 1144.5 L 1395.5 1150 L 1395 1148.5 L 1397.5 1143 Z " /><path fill="rgb(28,24,26)" stroke="rgb(28,24,26)" stroke-width="1" opacity="0.6980392156862745" d="M 1390.5 1163 L 1391 1164.5 L 1387.5 1173 L 1387 1171.5 L 1390.5 1163 Z " /><path fill="rgb(28,24,26)" stroke="rgb(28,24,26)" stroke-width="1" opacity="0.6980392156862745" d="M 44.5 1166 L 47 1172.5 L 46 1172.5 L 44.5 1166 Z " /><path fill="rgb(28,24,26)" stroke="rgb(28,24,26)" stroke-width="1" opacity="0.6980392156862745" d="M 47.5 1174 L 49 1177.5 L 48 1177.5 L 47.5 1174 Z " /><path fill="rgb(28,24,26)" stroke="rgb(28,24,26)" stroke-width="1" opacity="0.6980392156862745" d="M 1386.5 1174 L 1387 1175.5 L 1385.5 1178 L 1385 1176.5 L 1386.5 1174 Z " /><path fill="rgb(28,24,26)" stroke="rgb(28,24,26)" stroke-width="1" opacity="0.6980392156862745" d="M 49.5 1179 L 51 1182.5 L 50 1182.5 L 49.5 1179 Z " /><path fill="rgb(28,24,26)" stroke="rgb(28,24,26)" stroke-width="1" opacity="0.6980392156862745" d="M 1384.5 1179 L 1385 1180.5 L 1383.5 1183 L 1383 1181.5 L 1384.5 1179 Z " /><path fill="rgb(28,24,26)" stroke="rgb(28,24,26)" stroke-width="1" opacity="0.6980392156862745" d="M 51.5 1184 L 53 1187.5 L 52 1187.5 L 51.5 1184 Z " /><path fill="rgb(28,24,26)" stroke="rgb(28,24,26)" stroke-width="1" opacity="0.6980392156862745" d="M 1382.5 1184 L 1383 1185.5 L 1381.5 1188 L 1381 1186.5 L 1382.5 1184 Z " /><path fill="rgb(28,24,26)" stroke="rgb(28,24,26)" stroke-width="1" opacity="0.6980392156862745" d="M 53.5 1189 L 55 1192.5 L 54 1192.5 L 53.5 1189 Z " /><path fill="rgb(28,24,26)" stroke="rgb(28,24,26)" stroke-width="1" opacity="0.6980392156862745" d="M 1380.5 1189 L 1381 1190.5 L 1379.5 1193 L 1379 1191.5 L 1380.5 1189 Z " /><path fill="rgb(28,24,26)" stroke="rgb(28,24,26)" stroke-width="1" opacity="0.6980392156862745" d="M 55.5 1194 L 57 1197.5 L 56 1197.5 L 55.5 1194 Z " /><path fill="rgb(28,24,26)" stroke="rgb(28,24,26)" stroke-width="1" opacity="0.6980392156862745" d="M 1378.5 1194 L 1379 1195.5 L 1377.5 1198 L 1377 1196.5 L 1378.5 1194 Z " /><path fill="rgb(28,24,26)" stroke="rgb(28,24,26)" stroke-width="1" opacity="0.6980392156862745" d="M 57.5 1199 L 59 1202.5 L 58 1202.5 L 57.5 1199 Z " /><path fill="rgb(28,24,26)" stroke="rgb(28,24,26)" stroke-width="1" opacity="0.6980392156862745" d="M 1376.5 1199 L 1377 1200.5 L 1375.5 1203 L 1375 1201.5 L 1376.5 1199 Z " /><path fill="rgb(28,24,26)" stroke="rgb(28,24,26)" stroke-width="1" opacity="0.6980392156862745" d="M 61.5 1208 L 64 1213.5 L 63 1213.5 L 61.5 1208 Z " /><path fill="rgb(28,24,26)" stroke="rgb(28,24,26)" stroke-width="1" opacity="0.6980392156862745" d="M 1372.5 1208 L 1373 1209.5 L 1370.5 1214 L 1370 1212.5 L 1372.5 1208 Z " /><path fill="rgb(28,24,26)" stroke="rgb(28,24,26)" stroke-width="1" opacity="0.6980392156862745" d="M 66.5 1219 L 69 1224.5 L 68 1224.5 L 66.5 1219 Z " /><path fill="rgb(28,24,26)" stroke="rgb(28,24,26)" stroke-width="1" opacity="0.6980392156862745" d="M 1367.5 1219 L 1368 1220.5 L 1365.5 1225 L 1365 1223.5 L 1367.5 1219 Z " /><path fill="rgb(28,24,26)" stroke="rgb(28,24,26)" stroke-width="1" opacity="0.6980392156862745" d="M 70.5 1228 L 77 1240.5 L 75 1239.5 L 70 1229.5 L 70.5 1228 Z " /><path fill="rgb(28,24,26)" stroke="rgb(28,24,26)" stroke-width="1" opacity="0.6980392156862745" d="M 1363.5 1228 L 1364 1229.5 L 1358.5 1239 L 1359 1237.5 L 1363.5 1228 Z " /><path fill="rgb(28,24,26)" stroke="rgb(28,24,26)" stroke-width="1" opacity="0.6980392156862745" d="M 86.5 1260 L 90 1265.5 L 88 1264.5 L 86.5 1260 Z " /><path fill="rgb(28,24,26)" stroke="rgb(28,24,26)" stroke-width="1" opacity="0.6980392156862745" d="M 1347.5 1260 L 1347 1261.5 L 1344.5 1266 L 1345 1264.5 L 1347.5 1260 Z " /><path fill="rgb(28,24,26)" stroke="rgb(28,24,26)" stroke-width="1" opacity="0.6980392156862745" d="M 90.5 1267 L 94 1272.5 L 92 1271.5 L 90.5 1267 Z " /><path fill="rgb(28,24,26)" stroke="rgb(28,24,26)" stroke-width="1" opacity="0.6980392156862745" d="M 1343.5 1267 L 1343 1268.5 L 1340.5 1273 L 1341 1271.5 L 1343.5 1267 Z " /><path fill="rgb(28,24,26)" stroke="rgb(28,24,26)" stroke-width="1" opacity="0.6980392156862745" d="M 1339.5 1274 L 1339 1275.5 L 1335.5 1282 L 1336 1280.5 L 1339.5 1274 Z " /><path fill="rgb(28,24,26)" stroke="rgb(28,24,26)" stroke-width="1" opacity="0.6980392156862745" d="M 95.5 1276 L 99 1281.5 L 97 1280.5 L 95.5 1276 Z " /><path fill="rgb(28,24,26)" stroke="rgb(28,24,26)" stroke-width="1" opacity="0.6980392156862745" d="M 99.5 1283 L 108 1296.5 L 106 1295.5 L 99.5 1283 Z " /><path fill="rgb(28,24,26)" stroke="rgb(28,24,26)" stroke-width="1" opacity="0.6980392156862745" d="M 1334.5 1283 L 1334 1284.5 L 1326.5 1297 L 1327 1295.5 L 1334.5 1283 Z " /><path fill="rgb(28,24,26)" stroke="rgb(28,24,26)" stroke-width="1" opacity="0.6980392156862745" d="M 108.5 1298 Q 161.1 1382.4 232.5 1448 Q 286 1497.5 350.5 1536 Q 386.3 1557.2 425.5 1575 L 467.5 1592 L 508 1605.5 L 505.5 1606 L 467.5 1593 L 425.5 1576 Q 380.8 1555.7 340.5 1531 Q 268.2 1486.3 210 1427.5 Q 151.4 1369.6 108.5 1298 Z " /><path fill="rgb(28,24,26)" stroke="rgb(28,24,26)" stroke-width="1" opacity="0.6980392156862745" d="M 1325.5 1298 L 1325 1299.5 Q 1277.5 1377 1213.5 1438 Q 1155.1 1494.1 1083.5 1537 Q 1047.7 1558.2 1008.5 1576 L 966.5 1593 L 932.5 1604 L 932.5 1603 L 966.5 1592 L 1008.5 1575 Q 1050.5 1556 1088.5 1533 Q 1175.7 1479.7 1243 1406.5 Q 1289.1 1357.1 1325.5 1298 Z " /><path fill="rgb(28,24,26)" stroke="rgb(28,24,26)" stroke-width="1" opacity="0.6980392156862745" d="M 928.5 1604 L 931 1604.5 L 919.5 1608 L 919.5 1607 L 928.5 1604 Z " /><path fill="rgb(28,24,26)" stroke="rgb(28,24,26)" stroke-width="1" opacity="0.6980392156862745" d="M 509.5 1606 L 515 1607.5 L 512.5 1608 L 509.5 1607 L 509.5 1606 Z " /><path fill="rgb(28,24,26)" stroke="rgb(28,24,26)" stroke-width="1" opacity="0.6980392156862745" d="M 516.5 1608 L 557 1618.5 L 553.5 1619 L 522.5 1611 L 516.5 1609 L 516.5 1608 Z " /><path fill="rgb(28,24,26)" stroke="rgb(28,24,26)" stroke-width="1" opacity="0.6980392156862745" d="M 915.5 1608 L 918 1608.5 L 897.5 1614 L 897.5 1613 L 915.5 1608 Z " /><path fill="rgb(28,24,26)" stroke="rgb(28,24,26)" stroke-width="1" opacity="0.6980392156862745" d="M 893.5 1614 L 896 1614.5 L 877.5 1619 L 877.5 1618 L 893.5 1614 Z " /><path fill="rgb(28,24,26)" stroke="rgb(28,24,26)" stroke-width="1" opacity="0.6980392156862745" d="M 558.5 1619 L 562 1619.5 L 558.5 1620 L 558.5 1619 Z " /><path fill="rgb(28,24,26)" stroke="rgb(28,24,26)" stroke-width="1" opacity="0.6980392156862745" d="M 872.5 1619 L 876 1619.5 L 872.5 1620 L 872.5 1619 Z " /><path fill="rgb(28,24,26)" stroke="rgb(28,24,26)" stroke-width="1" opacity="0.6980392156862745" d="M 563.5 1620 L 571 1621.5 L 567.5 1622 L 563.5 1621 L 563.5 1620 Z " /><path fill="rgb(28,24,26)" stroke="rgb(28,24,26)" stroke-width="1" opacity="0.6980392156862745" d="M 867.5 1620 L 871 1620.5 L 863.5 1622 L 863.5 1621 L 867.5 1620 Z " /><path fill="rgb(28,24,26)" stroke="rgb(28,24,26)" stroke-width="1" opacity="0.6980392156862745" d="M 572.5 1622 L 576 1622.5 L 572.5 1623 L 572.5 1622 Z " /><path fill="rgb(28,24,26)" stroke="rgb(28,24,26)" stroke-width="1" opacity="0.6980392156862745" d="M 858.5 1622 L 862 1622.5 L 858.5 1623 L 858.5 1622 Z " /><path fill="rgb(28,24,26)" stroke="rgb(28,24,26)" stroke-width="1" opacity="0.6980392156862745" d="M 577.5 1623 L 586 1624.5 L 581.5 1625 L 577.5 1624 L 577.5 1623 Z " /><path fill="rgb(28,24,26)" stroke="rgb(28,24,26)" stroke-width="1" opacity="0.6980392156862745" d="M 853.5 1623 L 857 1623.5 L 848.5 1625 L 848.5 1624 L 853.5 1623 Z " /><path fill="rgb(28,24,26)" stroke="rgb(28,24,26)" stroke-width="1" opacity="0.6980392156862745" d="M 587.5 1625 L 592 1625.5 L 587.5 1626 L 587.5 1625 Z " /><path fill="rgb(28,24,26)" stroke="rgb(28,24,26)" stroke-width="1" opacity="0.6980392156862745" d="M 842.5 1625 L 847 1625.5 L 842.5 1626 L 842.5 1625 Z " /><path fill="rgb(28,24,26)" stroke="rgb(28,24,26)" stroke-width="1" opacity="0.6980392156862745" d="M 593.5 1626 L 598 1626.5 L 593.5 1627 L 593.5 1626 Z " /><path fill="rgb(28,24,26)" stroke="rgb(28,24,26)" stroke-width="1" opacity="0.6980392156862745" d="M 836.5 1626 L 841 1626.5 L 836.5 1627 L 836.5 1626 Z " /><path fill="rgb(28,24,26)" stroke="rgb(28,24,26)" stroke-width="1" opacity="0.6980392156862745" d="M 599.5 1627 L 604 1627.5 L 599.5 1628 L 599.5 1627 Z " /><path fill="rgb(28,24,26)" stroke="rgb(28,24,26)" stroke-width="1" opacity="0.6980392156862745" d="M 830.5 1627 L 835 1627.5 L 830.5 1628 L 830.5 1627 Z " /><path fill="rgb(28,24,26)" stroke="rgb(28,24,26)" stroke-width="1" opacity="0.6980392156862745" d="M 605.5 1628 L 610 1628.5 L 605.5 1629 L 605.5 1628 Z " /><path fill="rgb(28,24,26)" stroke="rgb(28,24,26)" stroke-width="1" opacity="0.6980392156862745" d="M 824.5 1628 L 829 1628.5 L 824.5 1629 L 824.5 1628 Z " /><path fill="rgb(28,24,26)" stroke="rgb(28,24,26)" stroke-width="1" opacity="0.6980392156862745" d="M 611.5 1629 L 615 1629.5 L 615 1843 L 392 1842.5 L 614 1842 L 614 1630.5 L 611.5 1630 L 611.5 1629 Z " /><path fill="rgb(28,24,26)" stroke="rgb(28,24,26)" stroke-width="1" opacity="0.6980392156862745" d="M 819 1629 L 823 1629.5 L 820 1630 L 820 1842 L 1041.5 1842 L 1041.5 1843 L 819 1843 L 819 1629 Z " /><path fill="rgb(28,24,26)" stroke="rgb(28,24,26)" stroke-width="1" opacity="0.6980392156862745" d="M 384.5 1843 L 389 1843.5 L 384.5 1844 L 384.5 1843 Z " /><path fill="rgb(28,24,26)" stroke="rgb(28,24,26)" stroke-width="1" opacity="0.6980392156862745" d="M 1045.5 1843 L 1050 1843.5 L 1045.5 1844 L 1045.5 1843 Z " /><path fill="rgb(28,24,26)" stroke="rgb(28,24,26)" stroke-width="1" opacity="0.6980392156862745" d="M 379.5 1844 L 382 1844.5 L 379.5 1845 L 379.5 1844 Z " /><path fill="rgb(28,24,26)" stroke="rgb(28,24,26)" stroke-width="1" opacity="0.6980392156862745" d="M 1052.5 1844 L 1055 1844.5 L 1052.5 1845 L 1052.5 1844 Z " /><path fill="rgb(28,24,26)" stroke="rgb(28,24,26)" stroke-width="1" opacity="0.6980392156862745" d="M 375.5 1845 L 378 1845.5 L 375.5 1846 L 375.5 1845 Z " /><path fill="rgb(28,24,26)" stroke="rgb(28,24,26)" stroke-width="1" opacity="0.6980392156862745" d="M 1056.5 1845 L 1059 1845.5 L 1056.5 1846 L 1056.5 1845 Z " /><path fill="rgb(28,24,26)" stroke="rgb(28,24,26)" stroke-width="1" opacity="0.6980392156862745" d="M 371.5 1846 L 374 1846.5 L 369.5 1848 L 369.5 1847 L 371.5 1846 Z " /><path fill="rgb(28,24,26)" stroke="rgb(28,24,26)" stroke-width="1" opacity="0.6980392156862745" d="M 1060.5 1846 L 1065 1847.5 L 1063.5 1848 L 1060.5 1847 L 1060.5 1846 Z " /><path fill="rgb(28,24,26)" stroke="rgb(28,24,26)" stroke-width="1" opacity="0.6980392156862745" d="M 363.5 1849 L 365 1849.5 L 352.5 1856 L 353.5 1854 L 363.5 1849 Z " /><path fill="rgb(28,24,26)" stroke="rgb(28,24,26)" stroke-width="1" opacity="0.6980392156862745" d="M 1069.5 1849 Q 1092.2 1857.8 1106 1875.5 Q 1114.3 1884.7 1119 1897.5 L 1118 1897.5 Q 1109.8 1876.7 1093.5 1864 Q 1083.3 1855.2 1069.5 1850 L 1069.5 1849 Z " /><path fill="rgb(28,24,26)" stroke="rgb(28,24,26)" stroke-width="1" opacity="0.6980392156862745" d="M 350.5 1856 L 349.5 1858 Q 337.1 1864.6 329 1875.5 Q 320.7 1885.2 315.5 1898 L 315 1896.5 Q 324.4 1875.4 341.5 1862 L 350.5 1856 Z " /><path fill="rgb(28,24,26)" stroke="rgb(28,24,26)" stroke-width="1" opacity="0.6980392156862745" d="M 314.5 1899 L 315 1900.5 L 312.5 1906 L 312 1904.5 L 314.5 1899 Z " /><path fill="rgb(28,24,26)" stroke="rgb(28,24,26)" stroke-width="1" opacity="0.6980392156862745" d="M 1119.5 1899 L 1122 1905.5 L 1121 1905.5 L 1119.5 1899 Z " /><path fill="rgb(28,24,26)" stroke="rgb(28,24,26)" stroke-width="1" opacity="0.6980392156862745" d="M 311.5 1907 L 312 1909.5 L 311 1909.5 L 311.5 1907 Z " /><path fill="rgb(28,24,26)" stroke="rgb(28,24,26)" stroke-width="1" opacity="0.6980392156862745" d="M 1122.5 1907 L 1123 1909.5 L 1122 1909.5 L 1122.5 1907 Z " /><path fill="rgb(28,24,26)" stroke="rgb(28,24,26)" stroke-width="1" opacity="0.6980392156862745" d="M 310.5 1911 L 311 1913.5 L 310 1913.5 L 310.5 1911 Z " /><path fill="rgb(28,24,26)" stroke="rgb(28,24,26)" stroke-width="1" opacity="0.6980392156862745" d="M 1123.5 1911 L 1124 1913.5 L 1123 1913.5 L 1123.5 1911 Z " /><path fill="rgb(28,24,26)" stroke="rgb(28,24,26)" stroke-width="1" opacity="0.6980392156862745" d="M 309.5 1915 L 310 1919.5 L 309 1920.5 L 309 1930.5 L 308 1931.5 L 308 1958.5 L 309 1959.5 L 310 1974.5 L 309 1974.5 L 308 1959.5 L 307 1958.5 L 307 1931.5 L 308 1930.5 Q 306.9 1920.9 309.5 1915 Z " /><path fill="rgb(28,24,26)" stroke="rgb(28,24,26)" stroke-width="1" opacity="0.6980392156862745" d="M 1124.5 1915 Q 1127.1 1920.9 1126 1930.5 L 1127 1931.5 L 1127 1957.5 L 1126 1957.5 L 1126 1931.5 L 1125 1930.5 L 1124.5 1915 Z " /><path fill="rgb(28,24,26)" stroke="rgb(28,24,26)" stroke-width="1" opacity="0.6980392156862745" d="M 1125.5 1959 L 1126 1969.5 L 1124.5 1975 L 1124 1970.5 L 1125 1969.5 L 1125.5 1959 Z " /><path fill="rgb(28,24,26)" stroke="rgb(28,24,26)" stroke-width="1" opacity="0.6980392156862745" d="M 310.5 1976 L 311 1978.5 L 310 1978.5 L 310.5 1976 Z " /><path fill="rgb(28,24,26)" stroke="rgb(28,24,26)" stroke-width="1" opacity="0.6980392156862745" d="M 1123.5 1976 L 1124 1978.5 L 1123 1978.5 L 1123.5 1976 Z " /><path fill="rgb(28,24,26)" stroke="rgb(28,24,26)" stroke-width="1" opacity="0.6980392156862745" d="M 311.5 1980 L 315 1990.5 L 314 1990.5 L 311 1982.5 L 311.5 1980 Z " /><path fill="rgb(28,24,26)" stroke="rgb(28,24,26)" stroke-width="1" opacity="0.6980392156862745" d="M 1122.5 1980 L 1123 1982.5 L 1119.5 1991 L 1119 1989.5 L 1122.5 1980 Z " /><path fill="rgb(28,24,26)" stroke="rgb(28,24,26)" stroke-width="1" opacity="0.6980392156862745" d="M 315.5 1992 L 323 2005.5 L 321 2004.5 L 315 1993.5 L 315.5 1992 Z " /><path fill="rgb(28,24,26)" stroke="rgb(28,24,26)" stroke-width="1" opacity="0.6980392156862745" d="M 1116.5 1996 L 1117 1997.5 Q 1108.1 2015.1 1093.5 2027 L 1086.5 2032 L 1088.5 2029 Q 1098.7 2023.7 1105 2014.5 L 1116.5 1996 Z " /><path fill="rgb(28,24,26)" stroke="rgb(28,24,26)" stroke-width="1" opacity="0.6980392156862745" d="M 323.5 2007 L 340.5 2026 L 348 2031.5 L 345.5 2030 Q 334.7 2024.3 328 2014.5 L 323.5 2007 Z " /><path fill="rgb(28,24,26)" stroke="rgb(28,24,26)" stroke-width="1" opacity="0.6980392156862745" d="M 349.5 2032 L 353 2034.5 L 351.5 2034 L 349.5 2032 Z " /><path fill="rgb(28,24,26)" stroke="rgb(28,24,26)" stroke-width="1" opacity="0.6980392156862745" d="M 1084.5 2032 L 1083.5 2034 L 1081.5 2035 L 1082.5 2033 L 1084.5 2032 Z " /><path fill="rgb(28,24,26)" stroke="rgb(28,24,26)" stroke-width="1" opacity="0.6980392156862745" d="M 354.5 2035 L 361 2038.5 L 359.5 2039 Q 354.9 2037.8 354.5 2035 Z " /><path fill="rgb(28,24,26)" stroke="rgb(28,24,26)" stroke-width="1" opacity="0.6980392156862745" d="M 1079.5 2035 L 1078.5 2037 L 1073.5 2039 L 1073.5 2038 L 1079.5 2035 Z " /><path fill="rgb(28,24,26)" stroke="rgb(28,24,26)" stroke-width="1" opacity="0.6980392156862745" d="M 380.5 2045 L 384 2045.5 L 380.5 2046 L 380.5 2045 Z " /><path fill="rgb(28,24,26)" stroke="rgb(28,24,26)" stroke-width="1" opacity="0.6980392156862745" d="M 1050.5 2045 L 1054 2045.5 L 1050.5 2046 L 1050.5 2045 Z " /><path fill="rgb(28,24,26)" stroke="rgb(28,24,26)" stroke-width="1" opacity="0.6980392156862745" d="M 386.5 2046 L 391 2046.5 L 386.5 2047 L 386.5 2046 Z " /><path fill="rgb(28,24,26)" stroke="rgb(28,24,26)" stroke-width="1" opacity="0.6980392156862745" d="M 1043.5 2046 L 1048 2046.5 L 1043.5 2047 L 1043.5 2046 Z " /><path fill="rgb(28,24,26)" stroke="rgb(28,24,26)" stroke-width="1" opacity="0.6980392156862745" d="M 397.5 2047 L 1037 2047.5 L 397.5 2048 L 397.5 2047 Z " /><path fill="rgb(30,25,26)" stroke="rgb(30,25,26)" stroke-width="1" opacity="0.996078431372549" d="M 927.5 59 L 928.5 61 L 927.5 59 Z " /><path fill="rgb(30,25,26)" stroke="rgb(30,25,26)" stroke-width="1" opacity="0.996078431372549" d="M 472.5 82 L 471.5 84 L 472.5 82 Z " /><path fill="rgb(30,25,26)" stroke="rgb(30,25,26)" stroke-width="1" opacity="0.996078431372549" d="M 961.5 82 L 962.5 84 L 961.5 82 Z " /><path fill="rgb(30,25,26)" stroke="rgb(30,25,26)" stroke-width="1" opacity="0.996078431372549" d="M 467.5 86 L 466.5 88 L 467.5 86 Z " /><path fill="rgb(30,25,26)" stroke="rgb(30,25,26)" stroke-width="1" opacity="0.996078431372549" d="M 966.5 86 L 967.5 88 L 966.5 86 Z " /><path fill="rgb(30,25,26)" stroke="rgb(30,25,26)" stroke-width="1" opacity="0.996078431372549" d="M 463.5 89 L 462.5 91 L 463.5 89 Z " /><path fill="rgb(30,25,26)" stroke="rgb(30,25,26)" stroke-width="1" opacity="0.996078431372549" d="M 970.5 89 L 971.5 91 L 970.5 89 Z " /><path fill="rgb(30,25,26)" stroke="rgb(30,25,26)" stroke-width="1" opacity="0.996078431372549" d="M 458.5 93 L 457.5 95 L 458.5 93 Z " /><path fill="rgb(30,25,26)" stroke="rgb(30,25,26)" stroke-width="1" opacity="0.996078431372549" d="M 975.5 93 L 976.5 95 L 975.5 93 Z " /><path fill="rgb(30,25,26)" stroke="rgb(30,25,26)" stroke-width="1" opacity="0.996078431372549" d="M 452.5 98 L 450.5 101 L 452.5 98 Z " /><path fill="rgb(30,25,26)" stroke="rgb(30,25,26)" stroke-width="1" opacity="0.996078431372549" d="M 981.5 98 L 983.5 101 L 981.5 98 Z " /><path fill="rgb(30,25,26)" stroke="rgb(30,25,26)" stroke-width="1" opacity="0.996078431372549" d="M 445.5 104 L 441.5 109 L 445.5 104 Z " /><path fill="rgb(30,25,26)" stroke="rgb(30,25,26)" stroke-width="1" opacity="0.996078431372549" d="M 989.5 105 L 992.5 109 L 989.5 105 Z " /><path fill="rgb(30,25,26)" stroke="rgb(30,25,26)" stroke-width="1" opacity="0.996078431372549" d="M 429.5 119 L 426.5 123 L 429.5 119 Z " /><path fill="rgb(30,25,26)" stroke="rgb(30,25,26)" stroke-width="1" opacity="0.996078431372549" d="M 1004.5 119 L 1010.5 126 L 1004.5 119 Z " /><path fill="rgb(30,25,26)" stroke="rgb(30,25,26)" stroke-width="1" opacity="0.996078431372549" d="M 415.5 134 L 412.5 138 L 415.5 134 Z " /><path fill="rgb(30,25,26)" stroke="rgb(30,25,26)" stroke-width="1" opacity="0.996078431372549" d="M 1018.5 134 L 1022.5 139 L 1018.5 134 Z " /><path fill="rgb(30,25,26)" stroke="rgb(30,25,26)" stroke-width="1" opacity="0.996078431372549" d="M 408.5 142 L 405.5 146 L 408.5 142 Z " /><path fill="rgb(30,25,26)" stroke="rgb(30,25,26)" stroke-width="1" opacity="0.996078431372549" d="M 1026.5 143 L 1028.5 146 L 1026.5 143 Z " /><path fill="rgb(30,25,26)" stroke="rgb(30,25,26)" stroke-width="1" opacity="0.996078431372549" d="M 401.5 150 L 400.5 152 L 401.5 150 Z " /><path fill="rgb(30,25,26)" stroke="rgb(30,25,26)" stroke-width="1" opacity="0.996078431372549" d="M 1032.5 150 L 1033.5 152 L 1032.5 150 Z " /><path fill="rgb(30,25,26)" stroke="rgb(30,25,26)" stroke-width="1" opacity="0.996078431372549" d="M 394.5 159 L 393.5 161 L 394.5 159 Z " /><path fill="rgb(30,25,26)" stroke="rgb(30,25,26)" stroke-width="1" opacity="0.996078431372549" d="M 1039.5 159 L 1040.5 161 L 1039.5 159 Z " /><path fill="rgb(30,25,26)" stroke="rgb(30,25,26)" stroke-width="1" opacity="0.996078431372549" d="M 390.5 164 L 389.5 166 L 390.5 164 Z " /><path fill="rgb(30,25,26)" stroke="rgb(30,25,26)" stroke-width="1" opacity="0.996078431372549" d="M 378.5 181 L 377.5 183 L 378.5 181 Z " /><path fill="rgb(30,25,26)" stroke="rgb(30,25,26)" stroke-width="1" opacity="0.996078431372549" d="M 1055.5 181 L 1056.5 183 L 1055.5 181 Z " /><path fill="rgb(30,25,26)" stroke="rgb(30,25,26)" stroke-width="1" opacity="0.996078431372549" d="M 93.5 820 L 97 820.5 L 93.5 821 L 93.5 820 Z " /><path fill="rgb(30,25,26)" stroke="rgb(30,25,26)" stroke-width="1" opacity="0.996078431372549" d="M 108.5 820 L 113 820.5 L 108.5 821 L 108.5 820 Z " /><path fill="rgb(30,25,26)" stroke="rgb(30,25,26)" stroke-width="1" opacity="0.996078431372549" d="M 1321.5 820 L 1324 820.5 L 1321.5 821 L 1321.5 820 Z " /><path fill="rgb(30,25,26)" stroke="rgb(30,25,26)" stroke-width="1" opacity="0.996078431372549" d="M 1338.5 820 L 1341 820.5 L 1338.5 821 L 1338.5 820 Z " /><path fill="rgb(30,25,26)" stroke="rgb(30,25,26)" stroke-width="1" opacity="0.996078431372549" d="M 117.5 821 L 120 821.5 L 117.5 822 L 117.5 821 Z " /><path fill="rgb(30,25,26)" stroke="rgb(30,25,26)" stroke-width="1" opacity="0.996078431372549" d="M 1292.5 827 L 1294 827.5 L 1288.5 830 L 1288.5 829 L 1292.5 827 Z " /><path fill="rgb(30,25,26)" stroke="rgb(30,25,26)" stroke-width="1" opacity="0.996078431372549" d="M 142.5 828 Q 153.4 831.6 161 838.5 L 158.5 837 L 142.5 829 L 142.5 828 Z " /><path fill="rgb(30,25,26)" stroke="rgb(30,25,26)" stroke-width="1" opacity="0.996078431372549" d="M 1282.5 832 L 1281.5 834 L 1279.5 835 L 1280.5 833 L 1282.5 832 Z " /><path fill="rgb(30,25,26)" stroke="rgb(30,25,26)" stroke-width="1" opacity="0.996078431372549" d="M 1277.5 835 L 1276.5 837 Q 1265.8 842.8 1258 851.5 Q 1239.6 870.1 1232 899.5 L 1231 910.5 L 1230 911.5 L 1228 969.5 L 1227 970.5 L 1227 978.5 L 1226 979.5 L 1225 994.5 L 1224 995.5 L 1221 1018.5 L 1208 1071.5 L 1192 1116.5 Q 1148.8 1218.8 1074.5 1290 Q 1026.4 1337.4 964.5 1371 L 965.5 1369 Q 1041.6 1327.6 1097 1265.5 Q 1129.2 1229.7 1155 1187.5 Q 1177.4 1150.9 1194 1108.5 L 1209 1064.5 L 1220 1018.5 L 1220 1013.5 L 1224 994.5 L 1226 970.5 L 1227 969.5 L 1229 911.5 L 1232 895.5 Q 1241.5 864 1263.5 845 L 1277.5 835 Z " /><path fill="rgb(30,25,26)" stroke="rgb(30,25,26)" stroke-width="1" opacity="0.996078431372549" d="M 43.5 839 L 42.5 841 L 43.5 839 Z " /><path fill="rgb(30,25,26)" stroke="rgb(30,25,26)" stroke-width="1" opacity="0.996078431372549" d="M 162.5 839 L 179 853.5 Q 195.8 871.7 203 899.5 L 204 910.5 L 205 911.5 L 207 969.5 L 208 970.5 L 208 978.5 L 209 979.5 L 210 994.5 L 211 995.5 L 214 1018.5 L 228 1074.5 L 246 1123.5 Q 292.9 1229.6 373.5 1302 Q 416.8 1341.2 470 1370.5 L 468.5 1370 Q 400.2 1333.3 349 1279.5 Q 282 1211.5 242 1116.5 L 226 1071.5 L 213 1018.5 L 213 1013.5 L 209 994.5 L 207 970.5 L 206 969.5 L 204 911.5 L 201 895.5 Q 192.4 867.1 173.5 849 Q 165.5 844.7 162.5 839 Z " /><path fill="rgb(30,25,26)" stroke="rgb(30,25,26)" stroke-width="1" opacity="0.996078431372549" d="M 1390.5 839 L 1391.5 841 L 1390.5 839 Z " /><path fill="rgb(30,25,26)" stroke="rgb(30,25,26)" stroke-width="1" opacity="0.996078431372549" d="M 39.5 842 L 38.5 844 L 39.5 842 Z " /><path fill="rgb(30,25,26)" stroke="rgb(30,25,26)" stroke-width="1" opacity="0.996078431372549" d="M 1394.5 842 L 1395.5 844 L 1394.5 842 Z " /><path fill="rgb(30,25,26)" stroke="rgb(30,25,26)" stroke-width="1" opacity="0.996078431372549" d="M 1401.5 848 L 1403.5 851 L 1401.5 848 Z " /><path fill="rgb(30,25,26)" stroke="rgb(30,25,26)" stroke-width="1" opacity="0.996078431372549" d="M 31.5 849 L 30.5 851 L 31.5 849 Z " /><path fill="rgb(30,25,26)" stroke="rgb(30,25,26)" stroke-width="1" opacity="0.996078431372549" d="M 24.5 857 L 23.5 859 L 24.5 857 Z " /><path fill="rgb(30,25,26)" stroke="rgb(30,25,26)" stroke-width="1" opacity="0.996078431372549" d="M 1409.5 857 L 1410.5 859 L 1409.5 857 Z " /><path fill="rgb(30,25,26)" stroke="rgb(30,25,26)" stroke-width="1" opacity="0.996078431372549" d="M 21.5 861 L 20.5 863 L 21.5 861 Z " /><path fill="rgb(30,25,26)" stroke="rgb(30,25,26)" stroke-width="1" opacity="0.996078431372549" d="M 1412.5 861 L 1413.5 863 L 1412.5 861 Z " /><path fill="rgb(30,25,26)" stroke="rgb(30,25,26)" stroke-width="1" opacity="0.996078431372549" d="M 359.5 1119 L 360.5 1121 L 359.5 1119 Z " /><path fill="rgb(30,25,26)" stroke="rgb(30,25,26)" stroke-width="1" opacity="0.996078431372549" d="M 1074.5 1119 L 1073.5 1121 L 1074.5 1119 Z " /><path fill="rgb(30,25,26)" stroke="rgb(30,25,26)" stroke-width="1" opacity="0.996078431372549" d="M 1070.5 1126 L 1069.5 1128 L 1070.5 1126 Z " /><path fill="rgb(30,25,26)" stroke="rgb(30,25,26)" stroke-width="1" opacity="0.996078431372549" d="M 369.5 1136 L 370.5 1138 L 369.5 1136 Z " /><path fill="rgb(30,25,26)" stroke="rgb(30,25,26)" stroke-width="1" opacity="0.996078431372549" d="M 1064.5 1136 L 1063.5 1138 L 1064.5 1136 Z " /><path fill="rgb(30,25,26)" stroke="rgb(30,25,26)" stroke-width="1" opacity="0.996078431372549" d="M 376.5 1147 L 377.5 1149 L 376.5 1147 Z " /><path fill="rgb(30,25,26)" stroke="rgb(30,25,26)" stroke-width="1" opacity="0.996078431372549" d="M 1057.5 1147 L 1056.5 1149 L 1057.5 1147 Z " /><path fill="rgb(30,25,26)" stroke="rgb(30,25,26)" stroke-width="1" opacity="0.996078431372549" d="M 378.5 1150 L 379.5 1152 L 378.5 1150 Z " /><path fill="rgb(30,25,26)" stroke="rgb(30,25,26)" stroke-width="1" opacity="0.996078431372549" d="M 1055.5 1150 L 1054.5 1152 L 1055.5 1150 Z " /><path fill="rgb(30,25,26)" stroke="rgb(30,25,26)" stroke-width="1" opacity="0.996078431372549" d="M 383.5 1157 L 384.5 1159 L 383.5 1157 Z " /><path fill="rgb(30,25,26)" stroke="rgb(30,25,26)" stroke-width="1" opacity="0.996078431372549" d="M 1050.5 1157 L 1049.5 1159 L 1050.5 1157 Z " /><path fill="rgb(30,25,26)" stroke="rgb(30,25,26)" stroke-width="1" opacity="0.996078431372549" d="M 385.5 1160 L 386.5 1162 L 385.5 1160 Z " /><path fill="rgb(30,25,26)" stroke="rgb(30,25,26)" stroke-width="1" opacity="0.996078431372549" d="M 1048.5 1160 L 1047.5 1162 L 1048.5 1160 Z " /><path fill="rgb(30,25,26)" stroke="rgb(30,25,26)" stroke-width="1" opacity="0.996078431372549" d="M 388.5 1164 L 389.5 1166 L 388.5 1164 Z " /><path fill="rgb(30,25,26)" stroke="rgb(30,25,26)" stroke-width="1" opacity="0.996078431372549" d="M 1045.5 1164 L 1044.5 1166 L 1045.5 1164 Z " /><path fill="rgb(30,25,26)" stroke="rgb(30,25,26)" stroke-width="1" opacity="0.996078431372549" d="M 391.5 1168 L 392.5 1170 L 391.5 1168 Z " /><path fill="rgb(30,25,26)" stroke="rgb(30,25,26)" stroke-width="1" opacity="0.996078431372549" d="M 1042.5 1168 L 1040.5 1171 L 1042.5 1168 Z " /><path fill="rgb(30,25,26)" stroke="rgb(30,25,26)" stroke-width="1" opacity="0.996078431372549" d="M 394.5 1172 L 396.5 1175 L 394.5 1172 Z " /><path fill="rgb(30,25,26)" stroke="rgb(30,25,26)" stroke-width="1" opacity="0.996078431372549" d="M 1039.5 1172 L 1037.5 1175 L 1039.5 1172 Z " /><path fill="rgb(30,25,26)" stroke="rgb(30,25,26)" stroke-width="1" opacity="0.996078431372549" d="M 398.5 1177 L 400.5 1180 L 398.5 1177 Z " /><path fill="rgb(30,25,26)" stroke="rgb(30,25,26)" stroke-width="1" opacity="0.996078431372549" d="M 1035.5 1177 L 1033.5 1180 L 1035.5 1177 Z " /><path fill="rgb(30,25,26)" stroke="rgb(30,25,26)" stroke-width="1" opacity="0.996078431372549" d="M 402.5 1182 L 405.5 1186 L 402.5 1182 Z " /><path fill="rgb(30,25,26)" stroke="rgb(30,25,26)" stroke-width="1" opacity="0.996078431372549" d="M 1031.5 1182 L 1028.5 1186 L 1031.5 1182 Z " /><path fill="rgb(30,25,26)" stroke="rgb(30,25,26)" stroke-width="1" opacity="0.996078431372549" d="M 1026.5 1188 L 1022.5 1193 L 1026.5 1188 Z " /><path fill="rgb(30,25,26)" stroke="rgb(30,25,26)" stroke-width="1" opacity="0.996078431372549" d="M 408.5 1189 L 412.5 1194 L 408.5 1189 Z " /><path fill="rgb(30,25,26)" stroke="rgb(30,25,26)" stroke-width="1" opacity="0.996078431372549" d="M 414.5 1196 L 441.5 1224 L 414.5 1196 Z " /><path fill="rgb(30,25,26)" stroke="rgb(30,25,26)" stroke-width="1" opacity="0.996078431372549" d="M 1018.5 1197 L 992.5 1224 L 1018.5 1197 Z " /><path fill="rgb(30,25,26)" stroke="rgb(30,25,26)" stroke-width="1" opacity="0.996078431372549" d="M 445.5 1226 L 449.5 1231 L 445.5 1226 Z " /><path fill="rgb(30,25,26)" stroke="rgb(30,25,26)" stroke-width="1" opacity="0.996078431372549" d="M 988.5 1226 L 984.5 1231 L 988.5 1226 Z " /><path fill="rgb(30,25,26)" stroke="rgb(30,25,26)" stroke-width="1" opacity="0.996078431372549" d="M 452.5 1232 L 456.5 1237 L 452.5 1232 Z " /><path fill="rgb(30,25,26)" stroke="rgb(30,25,26)" stroke-width="1" opacity="0.996078431372549" d="M 981.5 1232 L 977.5 1237 L 981.5 1232 Z " /><path fill="rgb(30,25,26)" stroke="rgb(30,25,26)" stroke-width="1" opacity="0.996078431372549" d="M 459.5 1238 L 461.5 1241 L 459.5 1238 Z " /><path fill="rgb(30,25,26)" stroke="rgb(30,25,26)" stroke-width="1" opacity="0.996078431372549" d="M 974.5 1238 L 972.5 1241 L 974.5 1238 Z " /><path fill="rgb(30,25,26)" stroke="rgb(30,25,26)" stroke-width="1" opacity="0.996078431372549" d="M 464.5 1242 L 465.5 1244 L 464.5 1242 Z " /><path fill="rgb(30,25,26)" stroke="rgb(30,25,26)" stroke-width="1" opacity="0.996078431372549" d="M 969.5 1242 L 968.5 1244 L 969.5 1242 Z " /><path fill="rgb(30,25,26)" stroke="rgb(30,25,26)" stroke-width="1" opacity="0.996078431372549" d="M 468.5 1245 L 470.5 1248 L 468.5 1245 Z " /><path fill="rgb(30,25,26)" stroke="rgb(30,25,26)" stroke-width="1" opacity="0.996078431372549" d="M 965.5 1245 L 963.5 1248 L 965.5 1245 Z " /><path fill="rgb(30,25,26)" stroke="rgb(30,25,26)" stroke-width="1" opacity="0.996078431372549" d="M 473.5 1249 L 474.5 1251 L 473.5 1249 Z " /><path fill="rgb(30,25,26)" stroke="rgb(30,25,26)" stroke-width="1" opacity="0.996078431372549" d="M 960.5 1249 L 959.5 1251 L 960.5 1249 Z " /><path fill="rgb(30,25,26)" stroke="rgb(30,25,26)" stroke-width="1" opacity="0.996078431372549" d="M 476.5 1251 L 477.5 1253 L 476.5 1251 Z " /><path fill="rgb(30,25,26)" stroke="rgb(30,25,26)" stroke-width="1" opacity="0.996078431372549" d="M 957.5 1251 L 956.5 1253 L 957.5 1251 Z " /><path fill="rgb(30,25,26)" stroke="rgb(30,25,26)" stroke-width="1" opacity="0.996078431372549" d="M 480.5 1254 L 481.5 1256 L 480.5 1254 Z " /><path fill="rgb(30,25,26)" stroke="rgb(30,25,26)" stroke-width="1" opacity="0.996078431372549" d="M 953.5 1254 L 952.5 1256 L 953.5 1254 Z " /><path fill="rgb(30,25,26)" stroke="rgb(30,25,26)" stroke-width="1" opacity="0.996078431372549" d="M 483.5 1256 L 484.5 1258 L 483.5 1256 Z " /><path fill="rgb(30,25,26)" stroke="rgb(30,25,26)" stroke-width="1" opacity="0.996078431372549" d="M 950.5 1256 L 949.5 1258 L 950.5 1256 Z " /><path fill="rgb(30,25,26)" stroke="rgb(30,25,26)" stroke-width="1" opacity="0.996078431372549" d="M 938.5 1264 L 937.5 1266 L 938.5 1264 Z " /><path fill="rgb(30,25,26)" stroke="rgb(30,25,26)" stroke-width="1" opacity="0.996078431372549" d="M 935.5 1266 L 934.5 1268 L 935.5 1266 Z " /><path fill="rgb(30,25,26)" stroke="rgb(30,25,26)" stroke-width="1" opacity="0.996078431372549" d="M 501.5 1268 L 502.5 1270 L 501.5 1268 Z " /><path fill="rgb(30,25,26)" stroke="rgb(30,25,26)" stroke-width="1" opacity="0.996078431372549" d="M 506.5 1271 L 507.5 1273 L 506.5 1271 Z " /><path fill="rgb(30,25,26)" stroke="rgb(30,25,26)" stroke-width="1" opacity="0.996078431372549" d="M 927.5 1271 L 926.5 1273 L 927.5 1271 Z " /><path fill="rgb(30,25,26)" stroke="rgb(30,25,26)" stroke-width="1" opacity="0.996078431372549" d="M 920.5 1275 L 919.5 1277 L 920.5 1275 Z " /><path fill="rgb(30,25,26)" stroke="rgb(30,25,26)" stroke-width="1" opacity="0.996078431372549" d="M 113.5 1305 L 114.5 1307 L 113.5 1305 Z " /><path fill="rgb(30,25,26)" stroke="rgb(30,25,26)" stroke-width="1" opacity="0.996078431372549" d="M 1320.5 1305 L 1319.5 1307 L 1320.5 1305 Z " /><path fill="rgb(30,25,26)" stroke="rgb(30,25,26)" stroke-width="1" opacity="0.996078431372549" d="M 129.5 1329 L 130.5 1331 L 129.5 1329 Z " /><path fill="rgb(30,25,26)" stroke="rgb(30,25,26)" stroke-width="1" opacity="0.996078431372549" d="M 1304.5 1329 L 1303.5 1331 L 1304.5 1329 Z " /><path fill="rgb(30,25,26)" stroke="rgb(30,25,26)" stroke-width="1" opacity="0.996078431372549" d="M 134.5 1336 L 135.5 1338 L 134.5 1336 Z " /><path fill="rgb(30,25,26)" stroke="rgb(30,25,26)" stroke-width="1" opacity="0.996078431372549" d="M 1299.5 1336 L 1298.5 1338 L 1299.5 1336 Z " /><path fill="rgb(30,25,26)" stroke="rgb(30,25,26)" stroke-width="1" opacity="0.996078431372549" d="M 136.5 1339 L 137.5 1341 L 136.5 1339 Z " /><path fill="rgb(30,25,26)" stroke="rgb(30,25,26)" stroke-width="1" opacity="0.996078431372549" d="M 1288.5 1351 L 1287.5 1353 L 1288.5 1351 Z " /><path fill="rgb(30,25,26)" stroke="rgb(30,25,26)" stroke-width="1" opacity="0.996078431372549" d="M 146.5 1352 L 147.5 1354 L 146.5 1352 Z " /><path fill="rgb(30,25,26)" stroke="rgb(30,25,26)" stroke-width="1" opacity="0.996078431372549" d="M 1285.5 1355 L 1284.5 1357 L 1285.5 1355 Z " /><path fill="rgb(30,25,26)" stroke="rgb(30,25,26)" stroke-width="1" opacity="0.996078431372549" d="M 149.5 1356 L 150.5 1358 L 149.5 1356 Z " /><path fill="rgb(30,25,26)" stroke="rgb(30,25,26)" stroke-width="1" opacity="0.996078431372549" d="M 1282.5 1359 L 1280.5 1362 L 1282.5 1359 Z " /><path fill="rgb(30,25,26)" stroke="rgb(30,25,26)" stroke-width="1" opacity="0.996078431372549" d="M 152.5 1360 L 153.5 1362 L 152.5 1360 Z " /><path fill="rgb(30,25,26)" stroke="rgb(30,25,26)" stroke-width="1" opacity="0.996078431372549" d="M 155.5 1364 L 156.5 1366 L 155.5 1364 Z " /><path fill="rgb(30,25,26)" stroke="rgb(30,25,26)" stroke-width="1" opacity="0.996078431372549" d="M 1278.5 1364 L 1276.5 1367 L 1278.5 1364 Z " /><path fill="rgb(30,25,26)" stroke="rgb(30,25,26)" stroke-width="1" opacity="0.996078431372549" d="M 160.5 1370 L 161.5 1372 L 160.5 1370 Z " /><path fill="rgb(30,25,26)" stroke="rgb(30,25,26)" stroke-width="1" opacity="0.996078431372549" d="M 1273.5 1370 L 1272.5 1372 L 1273.5 1370 Z " /><path fill="rgb(30,25,26)" stroke="rgb(30,25,26)" stroke-width="1" opacity="0.996078431372549" d="M 471.5 1371 L 485 1378.5 L 483.5 1378 L 472.5 1373 L 471.5 1371 Z " /><path fill="rgb(30,25,26)" stroke="rgb(30,25,26)" stroke-width="1" opacity="0.996078431372549" d="M 962.5 1371 L 961.5 1373 L 930.5 1388 L 930.5 1387 L 962.5 1371 Z " /><path fill="rgb(30,25,26)" stroke="rgb(30,25,26)" stroke-width="1" opacity="0.996078431372549" d="M 164.5 1375 L 166.5 1378 L 164.5 1375 Z " /><path fill="rgb(30,25,26)" stroke="rgb(30,25,26)" stroke-width="1" opacity="0.996078431372549" d="M 1269.5 1375 L 1268.5 1377 L 1269.5 1375 Z " /><path fill="rgb(30,25,26)" stroke="rgb(30,25,26)" stroke-width="1" opacity="0.996078431372549" d="M 1265.5 1380 L 1263.5 1383 L 1265.5 1380 Z " /><path fill="rgb(30,25,26)" stroke="rgb(30,25,26)" stroke-width="1" opacity="0.996078431372549" d="M 169.5 1381 L 171.5 1384 L 169.5 1381 Z " /><path fill="rgb(30,25,26)" stroke="rgb(30,25,26)" stroke-width="1" opacity="0.996078431372549" d="M 494.5 1383 L 506 1388.5 L 504.5 1389 L 494.5 1384 L 494.5 1383 Z " /><path fill="rgb(30,25,26)" stroke="rgb(30,25,26)" stroke-width="1" opacity="0.996078431372549" d="M 174.5 1387 L 176.5 1390 L 174.5 1387 Z " /><path fill="rgb(30,25,26)" stroke="rgb(30,25,26)" stroke-width="1" opacity="0.996078431372549" d="M 1259.5 1387 L 1257.5 1390 L 1259.5 1387 Z " /><path fill="rgb(30,25,26)" stroke="rgb(30,25,26)" stroke-width="1" opacity="0.996078431372549" d="M 925.5 1389 L 927 1389.5 L 921.5 1392 L 921.5 1391 L 925.5 1389 Z " /><path fill="rgb(30,25,26)" stroke="rgb(30,25,26)" stroke-width="1" opacity="0.996078431372549" d="M 509.5 1390 L 515 1392.5 L 513.5 1393 L 509.5 1391 L 509.5 1390 Z " /><path fill="rgb(30,25,26)" stroke="rgb(30,25,26)" stroke-width="1" opacity="0.996078431372549" d="M 516.5 1393 L 522 1395.5 L 520.5 1396 L 516.5 1394 L 516.5 1393 Z " /><path fill="rgb(30,25,26)" stroke="rgb(30,25,26)" stroke-width="1" opacity="0.996078431372549" d="M 916.5 1393 L 918 1393.5 L 912.5 1396 L 912.5 1395 L 916.5 1393 Z " /><path fill="rgb(30,25,26)" stroke="rgb(30,25,26)" stroke-width="1" opacity="0.996078431372549" d="M 182.5 1396 L 186.5 1401 L 182.5 1396 Z " /><path fill="rgb(30,25,26)" stroke="rgb(30,25,26)" stroke-width="1" opacity="0.996078431372549" d="M 1251.5 1396 L 1247.5 1401 L 1251.5 1396 Z " /><path fill="rgb(30,25,26)" stroke="rgb(30,25,26)" stroke-width="1" opacity="0.996078431372549" d="M 526.5 1397 L 530 1398.5 L 528.5 1399 L 526.5 1397 Z " /><path fill="rgb(30,25,26)" stroke="rgb(30,25,26)" stroke-width="1" opacity="0.996078431372549" d="M 906.5 1397 L 908 1397.5 L 904.5 1399 L 904.5 1398 L 906.5 1397 Z " /><path fill="rgb(30,25,26)" stroke="rgb(30,25,26)" stroke-width="1" opacity="0.996078431372549" d="M 531.5 1399 L 535 1400.5 L 533.5 1401 L 531.5 1399 Z " /><path fill="rgb(30,25,26)" stroke="rgb(30,25,26)" stroke-width="1" opacity="0.996078431372549" d="M 901.5 1399 L 903 1399.5 L 899.5 1401 L 899.5 1400 L 901.5 1399 Z " /><path fill="rgb(30,25,26)" stroke="rgb(30,25,26)" stroke-width="1" opacity="0.996078431372549" d="M 539.5 1402 L 543 1403.5 L 541.5 1404 L 539.5 1402 Z " /><path fill="rgb(30,25,26)" stroke="rgb(30,25,26)" stroke-width="1" opacity="0.996078431372549" d="M 893.5 1402 L 895 1402.5 L 891.5 1404 L 891.5 1403 L 893.5 1402 Z " /><path fill="rgb(30,25,26)" stroke="rgb(30,25,26)" stroke-width="1" opacity="0.996078431372549" d="M 191.5 1406 L 195.5 1411 L 191.5 1406 Z " /><path fill="rgb(30,25,26)" stroke="rgb(30,25,26)" stroke-width="1" opacity="0.996078431372549" d="M 1242.5 1406 L 1237.5 1412 L 1242.5 1406 Z " /><path fill="rgb(30,25,26)" stroke="rgb(30,25,26)" stroke-width="1" opacity="0.996078431372549" d="M 568.5 1412 L 571 1412.5 L 568.5 1413 L 568.5 1412 Z " /><path fill="rgb(30,25,26)" stroke="rgb(30,25,26)" stroke-width="1" opacity="0.996078431372549" d="M 863.5 1412 L 866 1412.5 L 863.5 1413 L 863.5 1412 Z " /><path fill="rgb(30,25,26)" stroke="rgb(30,25,26)" stroke-width="1" opacity="0.996078431372549" d="M 575.5 1414 L 578 1414.5 L 575.5 1415 L 575.5 1414 Z " /><path fill="rgb(30,25,26)" stroke="rgb(30,25,26)" stroke-width="1" opacity="0.996078431372549" d="M 856.5 1414 L 859 1414.5 L 856.5 1415 L 856.5 1414 Z " /><path fill="rgb(30,25,26)" stroke="rgb(30,25,26)" stroke-width="1" opacity="0.996078431372549" d="M 586.5 1417 L 589 1417.5 L 586.5 1418 L 586.5 1417 Z " /><path fill="rgb(30,25,26)" stroke="rgb(30,25,26)" stroke-width="1" opacity="0.996078431372549" d="M 845.5 1417 L 848 1417.5 L 845.5 1418 L 845.5 1417 Z " /><path fill="rgb(30,25,26)" stroke="rgb(30,25,26)" stroke-width="1" opacity="0.996078431372549" d="M 598.5 1420 L 601 1420.5 L 598.5 1421 L 598.5 1420 Z " /><path fill="rgb(30,25,26)" stroke="rgb(30,25,26)" stroke-width="1" opacity="0.996078431372549" d="M 833.5 1420 L 836 1420.5 L 833.5 1421 L 833.5 1420 Z " /><path fill="rgb(30,25,26)" stroke="rgb(30,25,26)" stroke-width="1" opacity="0.996078431372549" d="M 607.5 1422 L 610 1422.5 L 607.5 1423 L 607.5 1422 Z " /><path fill="rgb(30,25,26)" stroke="rgb(30,25,26)" stroke-width="1" opacity="0.996078431372549" d="M 824.5 1422 L 827 1422.5 L 824.5 1423 L 824.5 1422 Z " /><path fill="rgb(30,25,26)" stroke="rgb(30,25,26)" stroke-width="1" opacity="0.996078431372549" d="M 616.5 1424 L 619 1424.5 L 616.5 1425 L 616.5 1424 Z " /><path fill="rgb(30,25,26)" stroke="rgb(30,25,26)" stroke-width="1" opacity="0.996078431372549" d="M 815.5 1424 L 818 1424.5 L 815.5 1425 L 815.5 1424 Z " /><path fill="rgb(30,25,26)" stroke="rgb(30,25,26)" stroke-width="1" opacity="0.996078431372549" d="M 622.5 1425 L 625 1425.5 L 622.5 1426 L 622.5 1425 Z " /><path fill="rgb(30,25,26)" stroke="rgb(30,25,26)" stroke-width="1" opacity="0.996078431372549" d="M 809.5 1425 L 812 1425.5 L 809.5 1426 L 809.5 1425 Z " /><path fill="rgb(30,25,26)" stroke="rgb(30,25,26)" stroke-width="1" opacity="0.996078431372549" d="M 628.5 1426 L 631 1426.5 L 628.5 1427 L 628.5 1426 Z " /><path fill="rgb(30,25,26)" stroke="rgb(30,25,26)" stroke-width="1" opacity="0.996078431372549" d="M 803.5 1426 L 806 1426.5 L 803.5 1427 L 803.5 1426 Z " /><path fill="rgb(30,25,26)" stroke="rgb(30,25,26)" stroke-width="1" opacity="0.996078431372549" d="M 633.5 1427 L 637 1427.5 L 633.5 1428 L 633.5 1427 Z " /><path fill="rgb(30,25,26)" stroke="rgb(30,25,26)" stroke-width="1" opacity="0.996078431372549" d="M 797.5 1427 L 801 1427.5 L 797.5 1428 L 797.5 1427 Z " /><path fill="rgb(30,25,26)" stroke="rgb(30,25,26)" stroke-width="1" opacity="0.996078431372549" d="M 639.5 1428 L 642 1428.5 L 639.5 1429 L 639.5 1428 Z " /><path fill="rgb(30,25,26)" stroke="rgb(30,25,26)" stroke-width="1" opacity="0.996078431372549" d="M 792.5 1428 L 795 1428.5 L 792.5 1429 L 792.5 1428 Z " /><path fill="rgb(30,25,26)" stroke="rgb(30,25,26)" stroke-width="1" opacity="0.996078431372549" d="M 646.5 1429 L 650 1429.5 L 646.5 1430 L 646.5 1429 Z " /><path fill="rgb(30,25,26)" stroke="rgb(30,25,26)" stroke-width="1" opacity="0.996078431372549" d="M 784.5 1429 L 788 1429.5 L 784.5 1430 L 784.5 1429 Z " /><path fill="rgb(30,25,26)" stroke="rgb(30,25,26)" stroke-width="1" opacity="0.996078431372549" d="M 655.5 1430 L 659 1430.5 L 655.5 1431 L 655.5 1430 Z " /><path fill="rgb(30,25,26)" stroke="rgb(30,25,26)" stroke-width="1" opacity="0.996078431372549" d="M 775.5 1430 L 779 1430.5 L 775.5 1431 L 775.5 1430 Z " /><path fill="rgb(30,25,26)" stroke="rgb(30,25,26)" stroke-width="1" opacity="0.996078431372549" d="M 663.5 1431 L 667 1431.5 L 663.5 1432 L 663.5 1431 Z " /><path fill="rgb(30,25,26)" stroke="rgb(30,25,26)" stroke-width="1" opacity="0.996078431372549" d="M 767.5 1431 L 771 1431.5 L 767.5 1432 L 767.5 1431 Z " /><path fill="rgb(30,25,26)" stroke="rgb(30,25,26)" stroke-width="1" opacity="0.996078431372549" d="M 674.5 1432 L 681 1432.5 L 674.5 1433 L 674.5 1432 Z " /><path fill="rgb(30,25,26)" stroke="rgb(30,25,26)" stroke-width="1" opacity="0.996078431372549" d="M 754.5 1432 L 762 1432.5 L 754.5 1433 L 754.5 1432 Z " /><path fill="rgb(30,25,26)" stroke="rgb(30,25,26)" stroke-width="1" opacity="0.996078431372549" d="M 688.5 1433 L 701 1433.5 L 688.5 1434 L 688.5 1433 Z " /><path fill="rgb(30,25,26)" stroke="rgb(30,25,26)" stroke-width="1" opacity="0.996078431372549" d="M 735.5 1433 L 746 1433.5 L 735.5 1434 L 735.5 1433 Z " /><path fill="rgb(30,25,26)" stroke="rgb(30,25,26)" stroke-width="1" opacity="0.996078431372549" d="M 225.5 1440 L 232.5 1448 L 225.5 1440 Z " /><path fill="rgb(30,25,26)" stroke="rgb(30,25,26)" stroke-width="1" opacity="0.996078431372549" d="M 1208.5 1440 L 1203.5 1446 L 1208.5 1440 Z " /><path fill="rgb(30,25,26)" stroke="rgb(30,25,26)" stroke-width="1" opacity="0.996078431372549" d="M 1196.5 1451 L 1190.5 1458 L 1196.5 1451 Z " /><path fill="rgb(30,25,26)" stroke="rgb(30,25,26)" stroke-width="1" opacity="0.996078431372549" d="M 239.5 1453 L 242.5 1457 L 239.5 1453 Z " /><path fill="rgb(30,25,26)" stroke="rgb(30,25,26)" stroke-width="1" opacity="0.996078431372549" d="M 247.5 1460 L 250.5 1464 L 247.5 1460 Z " /><path fill="rgb(30,25,26)" stroke="rgb(30,25,26)" stroke-width="1" opacity="0.996078431372549" d="M 1186.5 1460 L 1184.5 1463 L 1186.5 1460 Z " /><path fill="rgb(30,25,26)" stroke="rgb(30,25,26)" stroke-width="1" opacity="0.996078431372549" d="M 1180.5 1465 L 1178.5 1468 L 1180.5 1465 Z " /><path fill="rgb(30,25,26)" stroke="rgb(30,25,26)" stroke-width="1" opacity="0.996078431372549" d="M 255.5 1467 L 257.5 1470 L 255.5 1467 Z " /><path fill="rgb(30,25,26)" stroke="rgb(30,25,26)" stroke-width="1" opacity="0.996078431372549" d="M 1173.5 1471 L 1171.5 1474 L 1173.5 1471 Z " /><path fill="rgb(30,25,26)" stroke="rgb(30,25,26)" stroke-width="1" opacity="0.996078431372549" d="M 261.5 1472 L 263.5 1475 L 261.5 1472 Z " /><path fill="rgb(30,25,26)" stroke="rgb(30,25,26)" stroke-width="1" opacity="0.996078431372549" d="M 1167.5 1476 L 1165.5 1479 L 1167.5 1476 Z " /><path fill="rgb(30,25,26)" stroke="rgb(30,25,26)" stroke-width="1" opacity="0.996078431372549" d="M 267.5 1477 L 268.5 1479 L 267.5 1477 Z " /><path fill="rgb(30,25,26)" stroke="rgb(30,25,26)" stroke-width="1" opacity="0.996078431372549" d="M 271.5 1480 L 272.5 1482 L 271.5 1480 Z " /><path fill="rgb(30,25,26)" stroke="rgb(30,25,26)" stroke-width="1" opacity="0.996078431372549" d="M 1162.5 1480 L 1161.5 1482 L 1162.5 1480 Z " /><path fill="rgb(30,25,26)" stroke="rgb(30,25,26)" stroke-width="1" opacity="0.996078431372549" d="M 280.5 1487 L 281.5 1489 L 280.5 1487 Z " /><path fill="rgb(30,25,26)" stroke="rgb(30,25,26)" stroke-width="1" opacity="0.996078431372549" d="M 1153.5 1487 L 1152.5 1489 L 1153.5 1487 Z " /><path fill="rgb(30,25,26)" stroke="rgb(30,25,26)" stroke-width="1" opacity="0.996078431372549" d="M 284.5 1490 L 285.5 1492 L 284.5 1490 Z " /><path fill="rgb(30,25,26)" stroke="rgb(30,25,26)" stroke-width="1" opacity="0.996078431372549" d="M 1149.5 1490 L 1148.5 1492 L 1149.5 1490 Z " /><path fill="rgb(30,25,26)" stroke="rgb(30,25,26)" stroke-width="1" opacity="0.996078431372549" d="M 289.5 1494 L 290.5 1496 L 289.5 1494 Z " /><path fill="rgb(30,25,26)" stroke="rgb(30,25,26)" stroke-width="1" opacity="0.996078431372549" d="M 293.5 1497 L 294.5 1499 L 293.5 1497 Z " /><path fill="rgb(30,25,26)" stroke="rgb(30,25,26)" stroke-width="1" opacity="0.996078431372549" d="M 296.5 1499 L 297.5 1501 L 296.5 1499 Z " /><path fill="rgb(30,25,26)" stroke="rgb(30,25,26)" stroke-width="1" opacity="0.996078431372549" d="M 1137.5 1499 L 1136.5 1501 L 1137.5 1499 Z " /><path fill="rgb(30,25,26)" stroke="rgb(30,25,26)" stroke-width="1" opacity="0.996078431372549" d="M 303.5 1504 L 304.5 1506 L 303.5 1504 Z " /><path fill="rgb(30,25,26)" stroke="rgb(30,25,26)" stroke-width="1" opacity="0.996078431372549" d="M 1130.5 1504 L 1129.5 1506 L 1130.5 1504 Z " /><path fill="rgb(30,25,26)" stroke="rgb(30,25,26)" stroke-width="1" opacity="0.996078431372549" d="M 306.5 1506 L 307.5 1508 L 306.5 1506 Z " /><path fill="rgb(30,25,26)" stroke="rgb(30,25,26)" stroke-width="1" opacity="0.996078431372549" d="M 1127.5 1506 L 1126.5 1508 L 1127.5 1506 Z " /><path fill="rgb(30,25,26)" stroke="rgb(30,25,26)" stroke-width="1" opacity="0.996078431372549" d="M 313.5 1511 L 314.5 1513 L 313.5 1511 Z " /><path fill="rgb(30,25,26)" stroke="rgb(30,25,26)" stroke-width="1" opacity="0.996078431372549" d="M 1120.5 1511 L 1119.5 1513 L 1120.5 1511 Z " /><path fill="rgb(30,25,26)" stroke="rgb(30,25,26)" stroke-width="1" opacity="0.996078431372549" d="M 316.5 1513 L 317.5 1515 L 316.5 1513 Z " /><path fill="rgb(30,25,26)" stroke="rgb(30,25,26)" stroke-width="1" opacity="0.996078431372549" d="M 1117.5 1513 L 1116.5 1515 L 1117.5 1513 Z " /><path fill="rgb(30,25,26)" stroke="rgb(30,25,26)" stroke-width="1" opacity="0.996078431372549" d="M 615.5 1629 L 616 1844 L 389.5 1844 L 374.5 1847 L 353.5 1856 Q 340.6 1863.6 331 1874.5 L 322.5 1886 L 323 1884.5 Q 330.3 1871.8 341.5 1863 Q 352 1854.5 365.5 1849 L 389.5 1843 L 615 1843 L 615.5 1629 Z " /><path fill="rgb(30,25,26)" stroke="rgb(30,25,26)" stroke-width="1" opacity="0.996078431372549" d="M 819.5 1843 L 1044.5 1843 Q 1084.3 1849.7 1105 1875.5 L 1112 1885.5 L 1110 1884.5 L 1095.5 1867 Q 1084 1856.5 1068.5 1850 L 1044.5 1844 L 819.5 1844 L 819.5 1843 Z " /><path fill="rgb(30,25,26)" stroke="rgb(30,25,26)" stroke-width="1" opacity="0.996078431372549" d="M 321.5 1887 L 321 1888.5 L 319.5 1891 L 320 1889.5 L 321.5 1887 Z " /><path fill="rgb(30,25,26)" stroke="rgb(30,25,26)" stroke-width="1" opacity="0.996078431372549" d="M 1112.5 1887 L 1115 1890.5 L 1113 1889.5 L 1112.5 1887 Z " /><path fill="rgb(30,25,26)" stroke="rgb(30,25,26)" stroke-width="1" opacity="0.996078431372549" d="M 316.5 1896 L 317 1897.5 L 315.5 1900 L 315 1898.5 L 316.5 1896 Z " /><path fill="rgb(30,25,26)" stroke="rgb(30,25,26)" stroke-width="1" opacity="0.996078431372549" d="M 1117.5 1896 L 1119 1899.5 L 1118 1899.5 L 1117.5 1896 Z " /><path fill="rgb(30,25,26)" stroke="rgb(30,25,26)" stroke-width="1" opacity="0.996078431372549" d="M 323.5 2006 L 324.5 2008 L 323.5 2006 Z " /><path fill="rgb(30,25,26)" stroke="rgb(30,25,26)" stroke-width="1" opacity="0.996078431372549" d="M 326.5 2010 L 327.5 2012 L 326.5 2010 Z " /><path fill="rgb(30,25,26)" stroke="rgb(30,25,26)" stroke-width="1" opacity="0.996078431372549" d="M 1107.5 2010 L 1106.5 2012 L 1107.5 2010 Z " /><path fill="rgb(30,25,26)" stroke="rgb(30,25,26)" stroke-width="1" opacity="0.996078431372549" d="M 329.5 2014 L 333.5 2019 L 329.5 2014 Z " /><path fill="rgb(30,25,26)" stroke="rgb(30,25,26)" stroke-width="1" opacity="0.996078431372549" d="M 1104.5 2014 L 1100.5 2019 L 1104.5 2014 Z " /><path fill="rgb(30,25,26)" stroke="rgb(30,25,26)" stroke-width="1" opacity="0.996078431372549" d="M 336.5 2021 L 340.5 2026 L 336.5 2021 Z " /><path fill="rgb(30,25,26)" stroke="rgb(30,25,26)" stroke-width="1" opacity="0.996078431372549" d="M 1097.5 2021 L 1093.5 2026 L 1097.5 2021 Z " /><path fill="rgb(30,25,26)" stroke="rgb(30,25,26)" stroke-width="1" opacity="0.996078431372549" d="M 1086.5 2030 L 1085.5 2032 L 1086.5 2030 Z " /><path fill="rgb(30,25,26)" stroke="rgb(30,25,26)" stroke-width="1" opacity="1" d="M 703.5 1 L 747.5 2 L 748.5 3 L 759.5 3 L 760.5 4 L 767.5 4 L 768.5 5 L 775.5 5 L 787.5 8 L 792.5 8 L 833.5 18 L 875.5 33 Q 960.2 69.8 1018 133.5 Q 1060.7 179.8 1089 240.5 L 1102 272.5 L 1111 300.5 L 1122 353.5 L 1122 360.5 L 1124 369.5 L 1124 381.5 L 1125 382.5 L 1125 405.5 L 1126 406.5 L 1126 925.5 L 1125 926.5 L 1124 961.5 L 1123 962.5 L 1122 977.5 L 1121 978.5 L 1118 1001.5 L 1109 1037.5 Q 1101 1064.5 1090 1088.5 Q 1052.6 1170.1 989.5 1226 Q 934.5 1276 858.5 1305 L 824.5 1316 L 777.5 1326 L 753.5 1328 L 752.5 1329 L 740.5 1329 L 739.5 1330 L 694.5 1330 L 693.5 1329 L 681.5 1329 L 680.5 1328 L 663.5 1327 L 629.5 1321 L 580.5 1307 L 546.5 1293 Q 467.5 1256 413 1194.5 Q 371.4 1148.6 344 1088.5 Q 333 1064.5 325 1037.5 L 316 1001.5 L 316 996.5 L 312 977.5 L 312 970.5 L 310 961.5 L 310 949.5 L 309 948.5 L 309 926.5 L 308 925.5 L 308 405.5 L 309 404.5 L 310 369.5 L 311 368.5 L 312 353.5 L 318 320.5 Q 328.1 277.1 345 240.5 Q 381.1 163.1 440.5 109 Q 490.6 62.1 558.5 33 L 600.5 18 L 631.5 10 L 658.5 5 L 665.5 5 L 674.5 3 L 685.5 3 L 686.5 2 L 702.5 2 L 703.5 1 Z " /><path fill="rgb(30,25,26)" stroke="rgb(30,25,26)" stroke-width="1" opacity="1" d="M 97.5 820 L 116.5 821 L 139.5 827 Q 160.4 835.6 175 850.5 Q 192.8 868.2 201 895.5 L 204 911.5 L 206 969.5 L 207 970.5 L 207 978.5 L 208 979.5 L 209 994.5 L 210 995.5 L 213 1018.5 L 226 1071.5 L 242 1116.5 Q 285.2 1218.8 359.5 1290 Q 434 1363.5 541.5 1404 L 586.5 1418 L 639.5 1429 L 654.5 1430 L 663.5 1432 L 673.5 1432 L 674.5 1433 L 687.5 1433 L 688.5 1434 L 745.5 1434 L 746.5 1433 L 761.5 1433 L 762.5 1432 L 794.5 1429 L 835.5 1421 Q 887.4 1408.4 931.5 1388 Q 1020.9 1346.4 1085 1279.5 Q 1152 1211.5 1192 1116.5 L 1208 1071.5 L 1221 1018.5 L 1221 1013.5 L 1225 994.5 L 1227 970.5 L 1228 969.5 L 1230 911.5 L 1233 895.5 Q 1241.7 866.2 1261.5 848 Q 1275.3 834.8 1294.5 827 L 1316.5 821 L 1337.5 820 L 1359.5 824 L 1380.5 833 Q 1397.2 842.3 1409 856.5 Q 1422.1 871.9 1429 893.5 L 1432 907.5 L 1433 930.5 L 1432 931.5 L 1432 959.5 L 1431 960.5 L 1430 986.5 L 1429 987.5 L 1426 1020.5 L 1418 1066.5 L 1410 1100.5 L 1399 1138.5 L 1376 1200.5 L 1347 1260.5 Q 1328.1 1295.6 1306 1327.5 Q 1263.2 1389.2 1209.5 1440 Q 1127.6 1518.6 1018.5 1570 L 968.5 1591 L 917.5 1608 L 870.5 1620 L 819 1629 L 819 1844 L 1044.5 1844 L 1059.5 1847 L 1080.5 1856 Q 1093.4 1863.6 1103 1874.5 Q 1115.7 1888.3 1122 1908.5 L 1125 1921.5 L 1125 1931.5 L 1126 1932.5 L 1126 1957.5 L 1125 1958.5 L 1124 1974.5 L 1119 1990.5 Q 1111.3 2008.3 1098.5 2021 Q 1088.2 2031.2 1074.5 2038 L 1058.5 2044 L 1041.5 2047 L 392.5 2047 L 375.5 2044 L 359.5 2038 Q 344.7 2030.8 334 2019.5 Q 319.4 2004.6 312 1982.5 L 309 1968.5 L 309 1958.5 L 308 1957.5 L 308 1932.5 L 309 1931.5 L 310 1916.5 L 317 1895.5 Q 325.4 1878.9 338.5 1867 Q 349.8 1856.3 365.5 1850 L 389.5 1844 L 616 1844 L 616 1629.5 Q 616 1628.5 611.5 1629 L 554.5 1618 L 509.5 1606 Q 439.3 1584.2 379.5 1552 Q 274.4 1495.1 196 1411.5 Q 147.5 1360 109 1298.5 Q 72.4 1239.6 46 1170.5 L 27 1111.5 L 13 1051.5 L 10 1027.5 L 8 1020.5 L 8 1014.5 L 7 1013.5 L 5 988.5 L 4 987.5 L 3 960.5 L 2 959.5 L 1 917.5 L 2 916.5 L 3 901.5 L 9 882.5 Q 19.3 859.3 37.5 844 Q 49 834.5 63.5 828 L 82.5 822 L 96.5 821 L 97.5 820 Z " /></svg>